<svg xmlns="http://www.w3.org/2000/svg" version="1.1" xmlns:xlink="http://www.w3.org/1999/xlink" xmlns:svgjs="http://svgjs.dev/svgjs" width="2560" height="1600" preserveAspectRatio="none" viewBox="0 0 2560 1600"><g mask="url(&quot;#SvgjsMask1282&quot;)" fill="none"><g mask="url(&quot;#SvgjsMask1283&quot;)"><path d="M444 900L420 876L396 876L372 876L348 852L324 852L300 852L276 852L252 852L228 852L204 852L180 852L156 852L132 852L108 852L84 876L60 876M1020 900L996 924L972 924L948 924L924 924M996 900L972 876L948 876L924 876M1212 900L1188 924L1164 924L1140 924L1116 924L1092 924L1068 924L1044 924L1020 924M324 876L300 900L276 900L252 900L228 900L204 900L180 900L156 900M1884 900L1860 876L1836 876L1812 876L1788 852L1764 852M540 900L516 924L492 924M1428 900L1404 876L1380 876L1356 876M732 900L708 924L684 948L660 948L636 948L612 948M2556 804L2532 780L2508 780L2484 780L2460 780L2436 780L2412 780L2388 756L2364 756L2340 756L2316 756L2292 756L2268 756M2364 804L2340 780L2316 780L2292 780L2268 780L2244 780L2220 780L2196 780L2172 780L2148 780L2124 780L2100 780L2076 780L2052 780L2028 780L2004 780L1980 756L1956 756M1668 900L1644 876L1620 876M1260 900L1236 876L1212 876M1140 900L1116 876L1092 876M2052 852L2028 828L2004 828L1980 828L1956 828L1932 828L1908 828L1884 852L1860 852L1836 852L1812 852L1788 828L1764 828L1740 828L1716 828L1692 828L1668 828L1644 828L1620 852L1596 852L1572 852L1548 852L1524 852L1500 852M1524 900L1500 876M1452 900L1428 876L1404 852L1380 852L1356 852L1332 852L1308 828M1356 924L1332 948L1308 948L1284 948L1260 948L1236 948L1212 948L1188 948L1164 948L1140 948L1116 948L1092 948L1068 948L1044 948L1020 948L996 948L972 948L948 948L924 948L900 948L876 948L852 948L828 948L804 948L780 948L756 948L732 948L708 972L684 972L660 972L636 972L612 972L588 972L564 948L540 948L516 948L492 948L468 948L444 948L420 948L396 948L372 948L348 948L324 924M708 900L684 876L660 876L636 876L612 876L588 876L564 876M1236 900L1212 924M1740 900L1716 876L1692 876L1668 876L1644 852M2124 852L2100 828L2076 804L2052 804L2028 804M1908 876L1884 876M396 900L372 924L348 924L324 900M852 876L828 900L804 924L780 924L756 924L732 924M516 900L492 876L468 876M2580 804L2556 804L2532 804L2508 804L2484 804L2460 804L2436 804L2412 804L2388 804L2364 804L2340 804L2316 804L2292 804L2268 804L2244 804L2220 804L2196 804L2172 804L2148 828L2124 852L2100 852L2076 852L2052 852L2028 852L2004 852L1980 852L1956 852L1932 852L1908 876L1884 900L1860 900L1836 900L1812 900L1788 900L1764 900L1740 900L1716 900L1692 900L1668 900L1644 900L1620 900L1596 900L1572 900L1548 900L1524 900L1500 900L1476 900L1452 900L1428 900L1404 900L1380 900L1356 924L1332 924L1308 924L1284 900L1260 900L1236 900L1212 900L1188 900L1164 900L1140 900L1116 900L1092 900L1068 900L1044 900L1020 900L996 900L972 900L948 900L924 900L900 900L876 876L852 876L828 876L804 876L780 900L756 900L732 900L708 900L684 900L660 900L636 900L612 900L588 900L564 900L540 900L516 900L492 900L468 900L444 900L420 900L396 900L372 900L348 876L324 876L300 876L276 876L252 876L228 876L204 876L180 876L156 876L132 876L108 876" stroke="rgba(137, 248, 206, 1)" stroke-width="4"></path><path d="M102 876 a6 6 0 1 0 12 0 a6 6 0 1 0 -12 0zM54 876 a6 6 0 1 0 12 0 a6 6 0 1 0 -12 0zM918 924 a6 6 0 1 0 12 0 a6 6 0 1 0 -12 0zM918 876 a6 6 0 1 0 12 0 a6 6 0 1 0 -12 0zM1014 924 a6 6 0 1 0 12 0 a6 6 0 1 0 -12 0zM150 900 a6 6 0 1 0 12 0 a6 6 0 1 0 -12 0zM1758 852 a6 6 0 1 0 12 0 a6 6 0 1 0 -12 0zM486 924 a6 6 0 1 0 12 0 a6 6 0 1 0 -12 0zM1350 876 a6 6 0 1 0 12 0 a6 6 0 1 0 -12 0zM606 948 a6 6 0 1 0 12 0 a6 6 0 1 0 -12 0zM2262 756 a6 6 0 1 0 12 0 a6 6 0 1 0 -12 0zM1950 756 a6 6 0 1 0 12 0 a6 6 0 1 0 -12 0zM1614 876 a6 6 0 1 0 12 0 a6 6 0 1 0 -12 0zM1206 876 a6 6 0 1 0 12 0 a6 6 0 1 0 -12 0zM1086 876 a6 6 0 1 0 12 0 a6 6 0 1 0 -12 0zM1494 852 a6 6 0 1 0 12 0 a6 6 0 1 0 -12 0zM1494 876 a6 6 0 1 0 12 0 a6 6 0 1 0 -12 0zM1302 828 a6 6 0 1 0 12 0 a6 6 0 1 0 -12 0zM318 924 a6 6 0 1 0 12 0 a6 6 0 1 0 -12 0zM558 876 a6 6 0 1 0 12 0 a6 6 0 1 0 -12 0zM1206 924 a6 6 0 1 0 12 0 a6 6 0 1 0 -12 0zM1638 852 a6 6 0 1 0 12 0 a6 6 0 1 0 -12 0zM2022 804 a6 6 0 1 0 12 0 a6 6 0 1 0 -12 0zM1878 876 a6 6 0 1 0 12 0 a6 6 0 1 0 -12 0zM318 900 a6 6 0 1 0 12 0 a6 6 0 1 0 -12 0zM726 924 a6 6 0 1 0 12 0 a6 6 0 1 0 -12 0zM462 876 a6 6 0 1 0 12 0 a6 6 0 1 0 -12 0z" fill="rgba(137, 248, 206, 1)"></path><path d="M2532 732L2508 756L2484 756L2460 756L2436 756L2412 756M1788 708L1764 732L1740 732L1716 756L1692 756L1668 756L1644 780L1620 780L1596 780L1572 756L1548 756L1524 756L1500 756L1476 756L1452 756L1428 756L1404 756L1380 756M876 780L852 804L828 804L804 804L780 804L756 804L732 804L708 804L684 804L660 804L636 804L612 804L588 804L564 804L540 804L516 804L492 804L468 780L444 780L420 780L396 780L372 780L348 780L324 780L300 780L276 780L252 780L228 780L204 780L180 780L156 780M972 780L948 756L924 756L900 756L876 756L852 756L828 756L804 756L780 756L756 756L732 756L708 756L684 756L660 756L636 756L612 756L588 756L564 756L540 756L516 756L492 756L468 732L444 732L420 732L396 732L372 732L348 732L324 732L300 732M948 780L924 804L900 804L876 804L852 828L828 852L804 852L780 852L756 876L732 876L708 876L684 852L660 852L636 852L612 852M1428 732L1404 708L1380 708L1356 708L1332 708L1308 708L1284 708L1260 684M1164 732L1140 708L1116 708L1092 684L1068 684L1044 684M2196 732L2172 756M1572 732L1548 708L1524 708L1500 708L1476 708L1452 708L1428 708L1404 684L1380 684L1356 684L1332 684L1308 684L1284 684L1260 660L1236 660L1212 660L1188 660L1164 660L1140 636L1116 636M1212 732L1188 756L1164 756L1140 756L1116 756M1836 708L1812 732L1788 732L1764 756L1740 756L1716 780L1692 780L1668 780L1644 804L1620 804L1596 804L1572 804L1548 804L1524 804L1500 804L1476 804L1452 780L1428 780L1404 780L1380 780L1356 780L1332 780L1308 780L1284 780L1260 780M2076 708L2052 684L2028 684L2004 684L1980 684L1956 684L1932 684L1908 684L1884 684L1860 684L1836 684M1068 756L1044 732L1020 732L996 732L972 708L948 708L924 708L900 708L876 708L852 708L828 708L804 708L780 708L756 708L732 708L708 708L684 708L660 708L636 708L612 708L588 708L564 708L540 708M2148 732L2124 708L2100 708L2076 684M1356 732L1332 756L1308 756L1284 756L1260 756L1236 756L1212 756L1188 780L1164 780M2244 732L2220 756L2196 756M2052 708L2028 732L2004 756M996 780L972 804L948 804L924 828L900 828L876 828L852 852M2580 780L2556 756L2532 732L2508 732L2484 732L2460 732L2436 732L2412 732L2388 732L2364 732L2340 732L2316 732L2292 732L2268 732L2244 732L2220 732L2196 732L2172 732L2148 732L2124 732L2100 732L2076 708L2052 708L2028 708L2004 708L1980 708L1956 708L1932 708L1908 708L1884 708L1860 708L1836 708L1812 708L1788 708L1764 708L1740 708L1716 708L1692 708L1668 732L1644 732L1620 732L1596 732L1572 732L1548 732L1524 732L1500 732L1476 732L1452 732L1428 732L1404 732L1380 732L1356 732L1332 732L1308 732L1284 732L1260 732L1236 732L1212 732L1188 732L1164 732L1140 732L1116 732L1092 756L1068 756L1044 756L1020 780L996 780L972 780L948 780L924 780L900 780L876 780L852 780L828 780" stroke="rgba(222, 200, 237, 1)" stroke-width="4"></path><path d="M822 780 a6 6 0 1 0 12 0 a6 6 0 1 0 -12 0zM2406 756 a6 6 0 1 0 12 0 a6 6 0 1 0 -12 0zM1374 756 a6 6 0 1 0 12 0 a6 6 0 1 0 -12 0zM150 780 a6 6 0 1 0 12 0 a6 6 0 1 0 -12 0zM294 732 a6 6 0 1 0 12 0 a6 6 0 1 0 -12 0zM606 852 a6 6 0 1 0 12 0 a6 6 0 1 0 -12 0zM1254 684 a6 6 0 1 0 12 0 a6 6 0 1 0 -12 0zM1038 684 a6 6 0 1 0 12 0 a6 6 0 1 0 -12 0zM2166 756 a6 6 0 1 0 12 0 a6 6 0 1 0 -12 0zM1110 636 a6 6 0 1 0 12 0 a6 6 0 1 0 -12 0zM1110 756 a6 6 0 1 0 12 0 a6 6 0 1 0 -12 0zM1254 780 a6 6 0 1 0 12 0 a6 6 0 1 0 -12 0zM1830 684 a6 6 0 1 0 12 0 a6 6 0 1 0 -12 0zM534 708 a6 6 0 1 0 12 0 a6 6 0 1 0 -12 0zM2070 684 a6 6 0 1 0 12 0 a6 6 0 1 0 -12 0zM1158 780 a6 6 0 1 0 12 0 a6 6 0 1 0 -12 0zM2190 756 a6 6 0 1 0 12 0 a6 6 0 1 0 -12 0zM1998 756 a6 6 0 1 0 12 0 a6 6 0 1 0 -12 0zM846 852 a6 6 0 1 0 12 0 a6 6 0 1 0 -12 0z" fill="rgba(222, 200, 237, 1)"></path><path d="M996 996L972 972L948 972L924 972L900 972L876 972L852 972L828 972L804 972L780 972L756 972L732 972M1164 996L1140 972L1116 972L1092 972L1068 972L1044 972L1020 972L996 972M1476 924L1452 924L1428 924L1404 924L1380 924M1212 996L1188 972L1164 972M2268 828L2244 852L2220 852L2196 852M2292 828L2268 852M1428 948L1404 948L1380 948L1356 948M2196 828L2172 828M1260 996L1236 972L1212 972M1284 972L1260 972M2316 828L2292 852M2580 828L2556 828L2532 828L2508 828L2484 828L2460 828L2436 828L2412 828L2388 828L2364 828L2340 828L2316 828L2292 828L2268 828L2244 828L2220 828L2196 828L2172 852L2148 852L2124 876L2100 876L2076 876L2052 876L2028 876L2004 876L1980 876L1956 876L1932 876L1908 900L1884 924L1860 924L1836 924L1812 924L1788 924L1764 924L1740 924L1716 924L1692 924L1668 924L1644 924L1620 924L1596 924L1572 924L1548 924L1524 924L1500 924L1476 924L1452 948L1428 948L1404 972L1380 972L1356 972L1332 972L1308 972L1284 972L1260 996L1236 996L1212 996L1188 996L1164 996L1140 996L1116 996L1092 996L1068 996L1044 996L1020 996L996 996L972 996L948 996" stroke="rgba(204, 153, 249, 1)" stroke-width="4"></path><path d="M942 996 a6 6 0 1 0 12 0 a6 6 0 1 0 -12 0zM726 972 a6 6 0 1 0 12 0 a6 6 0 1 0 -12 0zM990 972 a6 6 0 1 0 12 0 a6 6 0 1 0 -12 0zM1374 924 a6 6 0 1 0 12 0 a6 6 0 1 0 -12 0zM1158 972 a6 6 0 1 0 12 0 a6 6 0 1 0 -12 0zM2190 852 a6 6 0 1 0 12 0 a6 6 0 1 0 -12 0zM2262 852 a6 6 0 1 0 12 0 a6 6 0 1 0 -12 0zM1350 948 a6 6 0 1 0 12 0 a6 6 0 1 0 -12 0zM2166 828 a6 6 0 1 0 12 0 a6 6 0 1 0 -12 0zM1206 972 a6 6 0 1 0 12 0 a6 6 0 1 0 -12 0zM1254 972 a6 6 0 1 0 12 0 a6 6 0 1 0 -12 0zM2286 852 a6 6 0 1 0 12 0 a6 6 0 1 0 -12 0z" fill="rgba(204, 153, 249, 1)"></path><path d="M612 996L588 1020L564 1020L540 1020L516 1020L492 1020M924 1020L900 1044L876 1044L852 1044L828 1044L804 1044L780 1068L756 1068L732 1044L708 1044L684 1020L660 1020L636 1044L612 1044L588 1044L564 1044M300 996L276 1020L252 1020M1260 1020L1236 1044L1212 1044L1188 1044L1164 1044L1140 1044L1116 1044L1092 1044L1068 1044L1044 1044L1020 1044L996 1044L972 1044L948 1044M2244 876L2220 900L2196 900L2172 900L2148 900M804 996L780 1020L756 1020L732 1020M1524 948L1500 972L1476 972M876 1020L852 996L828 996M348 996L324 972L300 948L276 948L252 948L228 948L204 948L180 948L156 948L132 948L108 948L84 948L60 948M1572 948L1548 972L1524 972M492 996L468 972L444 972L420 972L396 972L372 972L348 972M2268 876L2244 900M468 996L444 1020L420 1020L396 1020L372 1020M1596 948L1572 972M2340 852L2316 852M540 996L516 972L492 972M324 996L300 1020L276 1044L252 1044L228 1044M276 996L252 972L228 972L204 972L180 972L156 972L132 972M1620 948L1596 972M108 1020L84 1044L60 1044M900 1020L876 996M180 996L156 1020L132 1044M228 996L204 1020L180 1020L156 1044L132 1068L108 1068L84 1068L60 1068M132 1020L108 996L84 996L60 996M1788 948L1764 972L1740 972M156 996L132 996M2580 852L2556 852L2532 852L2508 852L2484 852L2460 852L2436 852L2412 852L2388 852L2364 852L2340 852L2316 876L2292 876L2268 876L2244 876L2220 876L2196 876L2172 876L2148 876L2124 900L2100 900L2076 900L2052 900L2028 900L2004 900L1980 900L1956 900L1932 900L1908 924L1884 948L1860 948L1836 948L1812 948L1788 948L1764 948L1740 948L1716 948L1692 948L1668 948L1644 948L1620 948L1596 948L1572 948L1548 948L1524 948L1500 948L1476 948L1452 972L1428 972L1404 996L1380 996L1356 996L1332 996L1308 996L1284 996L1260 1020L1236 1020L1212 1020L1188 1020L1164 1020L1140 1020L1116 1020L1092 1020L1068 1020L1044 1020L1020 1020L996 1020L972 1020L948 1020L924 1020L900 1020L876 1020L852 1020L828 1020L804 996L780 996L756 996L732 996L708 996L684 996L660 996L636 996L612 996L588 996L564 996L540 996L516 996L492 996L468 996L444 996L420 996L396 996L372 996L348 996L324 996L300 996L276 996L252 996L228 996L204 996L180 996L156 996L132 1020L108 1020L84 1020L60 1020" stroke="rgba(222, 200, 237, 1)" stroke-width="4"></path><path d="M54 1020 a6 6 0 1 0 12 0 a6 6 0 1 0 -12 0zM486 1020 a6 6 0 1 0 12 0 a6 6 0 1 0 -12 0zM558 1044 a6 6 0 1 0 12 0 a6 6 0 1 0 -12 0zM246 1020 a6 6 0 1 0 12 0 a6 6 0 1 0 -12 0zM942 1044 a6 6 0 1 0 12 0 a6 6 0 1 0 -12 0zM2142 900 a6 6 0 1 0 12 0 a6 6 0 1 0 -12 0zM726 1020 a6 6 0 1 0 12 0 a6 6 0 1 0 -12 0zM1470 972 a6 6 0 1 0 12 0 a6 6 0 1 0 -12 0zM822 996 a6 6 0 1 0 12 0 a6 6 0 1 0 -12 0zM54 948 a6 6 0 1 0 12 0 a6 6 0 1 0 -12 0zM1518 972 a6 6 0 1 0 12 0 a6 6 0 1 0 -12 0zM342 972 a6 6 0 1 0 12 0 a6 6 0 1 0 -12 0zM2238 900 a6 6 0 1 0 12 0 a6 6 0 1 0 -12 0zM366 1020 a6 6 0 1 0 12 0 a6 6 0 1 0 -12 0zM1566 972 a6 6 0 1 0 12 0 a6 6 0 1 0 -12 0zM2310 852 a6 6 0 1 0 12 0 a6 6 0 1 0 -12 0zM486 972 a6 6 0 1 0 12 0 a6 6 0 1 0 -12 0zM222 1044 a6 6 0 1 0 12 0 a6 6 0 1 0 -12 0zM126 972 a6 6 0 1 0 12 0 a6 6 0 1 0 -12 0zM1590 972 a6 6 0 1 0 12 0 a6 6 0 1 0 -12 0zM54 1044 a6 6 0 1 0 12 0 a6 6 0 1 0 -12 0zM870 996 a6 6 0 1 0 12 0 a6 6 0 1 0 -12 0zM126 1044 a6 6 0 1 0 12 0 a6 6 0 1 0 -12 0zM54 1068 a6 6 0 1 0 12 0 a6 6 0 1 0 -12 0zM54 996 a6 6 0 1 0 12 0 a6 6 0 1 0 -12 0zM1734 972 a6 6 0 1 0 12 0 a6 6 0 1 0 -12 0zM126 996 a6 6 0 1 0 12 0 a6 6 0 1 0 -12 0z" fill="rgba(222, 200, 237, 1)"></path><path d="M2244 708L2220 708L2196 708L2172 708M1596 660L1572 684L1548 684L1524 684L1500 684L1476 684M1980 660L1956 636M1668 684L1644 708L1620 708L1596 684M2148 660L2124 684L2100 684M1836 660L1812 660M2364 708L2340 684L2316 684L2292 684L2268 684M1932 660L1908 636L1884 636L1860 636L1836 636M2220 684L2196 684L2172 684L2148 684M1764 684L1740 660L1716 660L1692 660M1644 684L1620 660M2580 732L2556 732L2532 708L2508 708L2484 708L2460 708L2436 708L2412 708L2388 708L2364 708L2340 708L2316 708L2292 708L2268 708L2244 708L2220 684L2196 660L2172 660L2148 660L2124 660L2100 660L2076 660L2052 660L2028 660L2004 660L1980 660L1956 660L1932 660L1908 660L1884 660L1860 660L1836 660L1812 684L1788 684L1764 684L1740 684L1716 684L1692 684L1668 684L1644 684L1620 684L1596 660L1572 660L1548 660L1524 660L1500 660" stroke="rgba(204, 153, 249, 1)" stroke-width="4"></path><path d="M1494 660 a6 6 0 1 0 12 0 a6 6 0 1 0 -12 0zM2166 708 a6 6 0 1 0 12 0 a6 6 0 1 0 -12 0zM1470 684 a6 6 0 1 0 12 0 a6 6 0 1 0 -12 0zM1950 636 a6 6 0 1 0 12 0 a6 6 0 1 0 -12 0zM1590 684 a6 6 0 1 0 12 0 a6 6 0 1 0 -12 0zM2094 684 a6 6 0 1 0 12 0 a6 6 0 1 0 -12 0zM1806 660 a6 6 0 1 0 12 0 a6 6 0 1 0 -12 0zM2262 684 a6 6 0 1 0 12 0 a6 6 0 1 0 -12 0zM1830 636 a6 6 0 1 0 12 0 a6 6 0 1 0 -12 0zM2142 684 a6 6 0 1 0 12 0 a6 6 0 1 0 -12 0zM1686 660 a6 6 0 1 0 12 0 a6 6 0 1 0 -12 0zM1614 660 a6 6 0 1 0 12 0 a6 6 0 1 0 -12 0z" fill="rgba(204, 153, 249, 1)"></path><path d="M2580 876L2556 876L2532 876L2508 876L2484 876L2460 876L2436 876L2412 876L2388 876L2364 876L2340 876L2316 900L2292 900" stroke="rgba(137, 248, 206, 1)" stroke-width="4"></path><path d="M2286 900 a6 6 0 1 0 12 0 a6 6 0 1 0 -12 0z" fill="rgba(137, 248, 206, 1)"></path><path d="M2316 660L2292 660L2268 660L2244 660M1764 636L1740 612L1716 612M1404 612L1380 636L1356 636L1332 636M1668 636L1644 612L1620 612L1596 612M2076 636L2052 612L2028 612L2004 612M1236 588L1212 612L1188 612L1164 612L1140 612L1116 612L1092 612M1524 612L1500 636M2004 636L1980 636M1332 588L1308 612L1284 612L1260 612M1548 636L1524 636M1356 588L1332 612M1452 612L1428 636L1404 636L1380 660M1572 636L1548 612M1788 636L1764 660M1692 636L1668 612M2580 708L2556 708L2532 684L2508 684L2484 684L2460 684L2436 684L2412 684L2388 684L2364 660L2340 660L2316 660L2292 636L2268 636L2244 636L2220 636L2196 636L2172 636L2148 636L2124 636L2100 636L2076 636L2052 636L2028 636L2004 636L1980 612L1956 612L1932 612L1908 612L1884 612L1860 612L1836 612L1812 636L1788 636L1764 636L1740 636L1716 636L1692 636L1668 636L1644 636L1620 636L1596 636L1572 636L1548 636L1524 612L1500 612L1476 612L1452 612L1428 612L1404 612L1380 612L1356 588L1332 588L1308 588L1284 588L1260 588L1236 588L1212 588L1188 588L1164 588" stroke="rgba(245, 250, 199, 1)" stroke-width="4"></path><path d="M1158 588 a6 6 0 1 0 12 0 a6 6 0 1 0 -12 0zM2238 660 a6 6 0 1 0 12 0 a6 6 0 1 0 -12 0zM1710 612 a6 6 0 1 0 12 0 a6 6 0 1 0 -12 0zM1326 636 a6 6 0 1 0 12 0 a6 6 0 1 0 -12 0zM1590 612 a6 6 0 1 0 12 0 a6 6 0 1 0 -12 0zM1998 612 a6 6 0 1 0 12 0 a6 6 0 1 0 -12 0zM1086 612 a6 6 0 1 0 12 0 a6 6 0 1 0 -12 0zM1494 636 a6 6 0 1 0 12 0 a6 6 0 1 0 -12 0zM1974 636 a6 6 0 1 0 12 0 a6 6 0 1 0 -12 0zM1254 612 a6 6 0 1 0 12 0 a6 6 0 1 0 -12 0zM1518 636 a6 6 0 1 0 12 0 a6 6 0 1 0 -12 0zM1326 612 a6 6 0 1 0 12 0 a6 6 0 1 0 -12 0zM1374 660 a6 6 0 1 0 12 0 a6 6 0 1 0 -12 0zM1542 612 a6 6 0 1 0 12 0 a6 6 0 1 0 -12 0zM1758 660 a6 6 0 1 0 12 0 a6 6 0 1 0 -12 0zM1662 612 a6 6 0 1 0 12 0 a6 6 0 1 0 -12 0z" fill="rgba(245, 250, 199, 1)"></path><path d="M2532 900L2508 924L2484 924L2460 948L2436 948L2412 948L2388 948L2364 948L2340 948L2316 948L2292 948L2268 948M1572 996L1548 1020L1524 1020L1500 1020M1332 1020L1308 1044L1284 1044L1260 1044L1236 1068L1212 1068L1188 1068L1164 1068M1956 924L1932 948L1908 972L1884 996L1860 996L1836 996L1812 996L1788 1020L1764 1020L1740 1020L1716 1020M1812 972L1788 972M1476 996L1452 1020L1428 1020L1404 1044L1380 1044L1356 1044L1332 1044L1308 1068L1284 1068L1260 1068M1620 996L1596 1020L1572 1020L1548 1044L1524 1044L1500 1044L1476 1044L1452 1044L1428 1044M1980 924L1956 948M2460 900L2436 924M2148 924L2124 948L2100 948L2076 948L2052 948L2028 948L2004 948L1980 972L1956 972L1932 972L1908 996L1884 1020M1644 972L1620 972M1692 972L1668 996L1644 996L1620 1020M2172 924L2148 948L2124 972L2100 972L2076 972L2052 972L2028 972L2004 972M2580 900L2556 900L2532 900L2508 900L2484 900L2460 900L2436 900L2412 900L2388 900L2364 900L2340 900L2316 924L2292 924L2268 924L2244 924L2220 924L2196 924L2172 924L2148 924L2124 924L2100 924L2076 924L2052 924L2028 924L2004 924L1980 924L1956 924L1932 924L1908 948L1884 972L1860 972L1836 972L1812 972L1788 996L1764 996L1740 996L1716 972L1692 972L1668 972L1644 972L1620 996L1596 996L1572 996L1548 996L1524 996L1500 996L1476 996L1452 996L1428 996L1404 1020L1380 1020L1356 1020L1332 1020L1308 1020L1284 1020" stroke="rgba(222, 200, 237, 1)" stroke-width="4"></path><path d="M1278 1020 a6 6 0 1 0 12 0 a6 6 0 1 0 -12 0zM2262 948 a6 6 0 1 0 12 0 a6 6 0 1 0 -12 0zM1494 1020 a6 6 0 1 0 12 0 a6 6 0 1 0 -12 0zM1158 1068 a6 6 0 1 0 12 0 a6 6 0 1 0 -12 0zM1710 1020 a6 6 0 1 0 12 0 a6 6 0 1 0 -12 0zM1782 972 a6 6 0 1 0 12 0 a6 6 0 1 0 -12 0zM1254 1068 a6 6 0 1 0 12 0 a6 6 0 1 0 -12 0zM1422 1044 a6 6 0 1 0 12 0 a6 6 0 1 0 -12 0zM1950 948 a6 6 0 1 0 12 0 a6 6 0 1 0 -12 0zM2430 924 a6 6 0 1 0 12 0 a6 6 0 1 0 -12 0zM1878 1020 a6 6 0 1 0 12 0 a6 6 0 1 0 -12 0zM1614 972 a6 6 0 1 0 12 0 a6 6 0 1 0 -12 0zM1614 1020 a6 6 0 1 0 12 0 a6 6 0 1 0 -12 0zM1998 972 a6 6 0 1 0 12 0 a6 6 0 1 0 -12 0z" fill="rgba(222, 200, 237, 1)"></path><path d="M2412 660L2388 636M2436 660L2412 636M2580 684L2556 684L2532 660L2508 660L2484 660L2460 660L2436 660L2412 660L2388 660L2364 636L2340 636L2316 636L2292 612L2268 612L2244 612L2220 612L2196 612L2172 612L2148 612L2124 612L2100 612" stroke="rgba(204, 153, 249, 1)" stroke-width="4"></path><path d="M2094 612 a6 6 0 1 0 12 0 a6 6 0 1 0 -12 0zM2382 636 a6 6 0 1 0 12 0 a6 6 0 1 0 -12 0zM2406 636 a6 6 0 1 0 12 0 a6 6 0 1 0 -12 0z" fill="rgba(204, 153, 249, 1)"></path><path d="M2556 948L2532 924M2580 924L2556 948L2532 948L2508 948L2484 948L2460 972L2436 972L2412 972" stroke="rgba(222, 200, 237, 1)" stroke-width="4"></path><path d="M2406 972 a6 6 0 1 0 12 0 a6 6 0 1 0 -12 0zM2526 924 a6 6 0 1 0 12 0 a6 6 0 1 0 -12 0z" fill="rgba(222, 200, 237, 1)"></path><path d="M1308 564L1284 564L1260 564L1236 564L1212 564L1188 564L1164 564M948 540L924 564L900 564L876 564L852 564L828 564L804 564L780 564L756 564L732 564L708 564L684 564L660 564L636 564M1836 588L1812 564M2412 612L2388 588L2364 588L2340 588L2316 588M1356 564L1332 540L1308 540L1284 516L1260 492L1236 492L1212 492L1188 492L1164 492M972 540L948 516M1572 588L1548 564L1524 564L1500 564L1476 564L1452 564L1428 564L1404 564L1380 564L1356 540L1332 516L1308 516M1092 540L1068 516L1044 492L1020 492L996 492L972 492L948 492L924 492L900 492L876 492M1788 588L1764 612M1812 588L1788 612M1116 540L1092 564L1068 564L1044 564L1020 564L996 564L972 564L948 564L924 588L900 588L876 588L852 588L828 588L804 588M1932 588L1908 564L1884 564L1860 564L1836 564M1260 540L1236 516L1212 516L1188 516L1164 516L1140 516L1116 516L1092 516L1068 492M2460 636L2436 636M996 540L972 516M1980 588L1956 564L1932 564M2004 588L1980 564M1140 540L1116 564L1092 588L1068 588L1044 588M2580 660L2556 660L2532 636L2508 636L2484 636L2460 636L2436 612L2412 612L2388 612L2364 612L2340 612L2316 612L2292 588L2268 588L2244 588L2220 588L2196 588L2172 588L2148 588L2124 588L2100 588L2076 588L2052 588L2028 588L2004 588L1980 588L1956 588L1932 588L1908 588L1884 588L1860 588L1836 588L1812 588L1788 588L1764 588L1740 588L1716 588L1692 588L1668 588L1644 588L1620 588L1596 588L1572 588L1548 588L1524 588L1500 588L1476 588L1452 588L1428 588L1404 588L1380 588L1356 564L1332 564L1308 564L1284 540L1260 540L1236 540L1212 540L1188 540L1164 540L1140 540L1116 540L1092 540L1068 540L1044 540L1020 540L996 540L972 540L948 540L924 540L900 540L876 540L852 540L828 540" stroke="rgba(137, 248, 206, 1)" stroke-width="4"></path><path d="M822 540 a6 6 0 1 0 12 0 a6 6 0 1 0 -12 0zM1158 564 a6 6 0 1 0 12 0 a6 6 0 1 0 -12 0zM630 564 a6 6 0 1 0 12 0 a6 6 0 1 0 -12 0zM1806 564 a6 6 0 1 0 12 0 a6 6 0 1 0 -12 0zM2310 588 a6 6 0 1 0 12 0 a6 6 0 1 0 -12 0zM1158 492 a6 6 0 1 0 12 0 a6 6 0 1 0 -12 0zM942 516 a6 6 0 1 0 12 0 a6 6 0 1 0 -12 0zM1302 516 a6 6 0 1 0 12 0 a6 6 0 1 0 -12 0zM870 492 a6 6 0 1 0 12 0 a6 6 0 1 0 -12 0zM1758 612 a6 6 0 1 0 12 0 a6 6 0 1 0 -12 0zM1782 612 a6 6 0 1 0 12 0 a6 6 0 1 0 -12 0zM798 588 a6 6 0 1 0 12 0 a6 6 0 1 0 -12 0zM1830 564 a6 6 0 1 0 12 0 a6 6 0 1 0 -12 0zM1062 492 a6 6 0 1 0 12 0 a6 6 0 1 0 -12 0zM2430 636 a6 6 0 1 0 12 0 a6 6 0 1 0 -12 0zM966 516 a6 6 0 1 0 12 0 a6 6 0 1 0 -12 0zM1926 564 a6 6 0 1 0 12 0 a6 6 0 1 0 -12 0zM1974 564 a6 6 0 1 0 12 0 a6 6 0 1 0 -12 0zM1038 588 a6 6 0 1 0 12 0 a6 6 0 1 0 -12 0z" fill="rgba(137, 248, 206, 1)"></path><path d="M2580 636L2556 636L2532 612L2508 612L2484 612L2460 612L2436 588" stroke="rgba(204, 153, 249, 1)" stroke-width="4"></path><path d="M2430 588 a6 6 0 1 0 12 0 a6 6 0 1 0 -12 0z" fill="rgba(204, 153, 249, 1)"></path><path d="M972 1092L948 1116L924 1116L900 1116L876 1116L852 1116L828 1116L804 1116L780 1116L756 1116L732 1140L708 1140L684 1140L660 1140L636 1140L612 1140L588 1140M1692 1068L1668 1044L1644 1044L1620 1044L1596 1044L1572 1044M1332 1092L1308 1116M900 1068L876 1092M2292 996L2268 972L2244 972L2220 972L2196 972L2172 972L2148 972L2124 996L2100 996L2076 996M516 1068L492 1044L468 1044M924 1068L900 1092M1476 1092L1452 1068L1428 1068L1404 1068L1380 1068L1356 1068L1332 1068M540 1068L516 1044M1092 1092L1068 1068L1044 1068L1020 1068L996 1068L972 1068M660 1068L636 1092L612 1092L588 1092L564 1092L540 1092L516 1092L492 1092L468 1092L444 1092M1428 1092L1404 1116L1380 1116L1356 1116L1332 1116M1068 1092L1044 1116M2412 996L2388 1020M1980 1020L1956 1020L1932 1020L1908 1020L1884 1044L1860 1044L1836 1044L1812 1044L1788 1044L1764 1044L1740 1044L1716 1044L1692 1044L1668 1020L1644 1020M1500 1092L1476 1116L1452 1116L1428 1116M1764 1068L1740 1092L1716 1092L1692 1092L1668 1092L1644 1092L1620 1092L1596 1092L1572 1092L1548 1092M2268 996L2244 996L2220 996L2196 996L2172 996L2148 996M708 1068L684 1092L660 1092L636 1116L612 1116L588 1116L564 1116L540 1116L516 1116L492 1116L468 1116L444 1116L420 1116L396 1116L372 1116L348 1116L324 1116L300 1116L276 1116M2052 996L2028 1020L2004 1020M2364 996L2340 972L2316 972L2292 972M1548 1068L1524 1068L1500 1068L1476 1068M2580 972L2556 972L2532 972L2508 972L2484 972L2460 996L2436 996L2412 996L2388 996L2364 996L2340 996L2316 996L2292 996L2268 996L2244 1020L2220 1020L2196 1020L2172 1020L2148 1020L2124 1020L2100 1020L2076 1020L2052 996L2028 996L2004 996L1980 1020L1956 1044L1932 1068L1908 1068L1884 1068L1860 1068L1836 1068L1812 1068L1788 1068L1764 1068L1740 1068L1716 1068L1692 1068L1668 1068L1644 1068L1620 1068L1596 1068L1572 1068L1548 1068L1524 1092L1500 1092L1476 1092L1452 1092L1428 1092L1404 1092L1380 1092L1356 1092L1332 1092L1308 1092L1284 1092L1260 1092L1236 1092L1212 1092L1188 1092L1164 1092L1140 1092L1116 1092L1092 1092L1068 1092L1044 1092L1020 1092L996 1092L972 1092L948 1092L924 1068L900 1068L876 1068L852 1092L828 1092L804 1092L780 1092L756 1092L732 1068L708 1068L684 1068L660 1068L636 1068L612 1068L588 1068L564 1068L540 1068L516 1068L492 1068" stroke="rgba(137, 248, 206, 1)" stroke-width="4"></path><path d="M486 1068 a6 6 0 1 0 12 0 a6 6 0 1 0 -12 0zM582 1140 a6 6 0 1 0 12 0 a6 6 0 1 0 -12 0zM1566 1044 a6 6 0 1 0 12 0 a6 6 0 1 0 -12 0zM1302 1116 a6 6 0 1 0 12 0 a6 6 0 1 0 -12 0zM870 1092 a6 6 0 1 0 12 0 a6 6 0 1 0 -12 0zM2070 996 a6 6 0 1 0 12 0 a6 6 0 1 0 -12 0zM462 1044 a6 6 0 1 0 12 0 a6 6 0 1 0 -12 0zM894 1092 a6 6 0 1 0 12 0 a6 6 0 1 0 -12 0zM1326 1068 a6 6 0 1 0 12 0 a6 6 0 1 0 -12 0zM510 1044 a6 6 0 1 0 12 0 a6 6 0 1 0 -12 0zM966 1068 a6 6 0 1 0 12 0 a6 6 0 1 0 -12 0zM438 1092 a6 6 0 1 0 12 0 a6 6 0 1 0 -12 0zM1326 1116 a6 6 0 1 0 12 0 a6 6 0 1 0 -12 0zM1038 1116 a6 6 0 1 0 12 0 a6 6 0 1 0 -12 0zM2382 1020 a6 6 0 1 0 12 0 a6 6 0 1 0 -12 0zM1638 1020 a6 6 0 1 0 12 0 a6 6 0 1 0 -12 0zM1422 1116 a6 6 0 1 0 12 0 a6 6 0 1 0 -12 0zM1542 1092 a6 6 0 1 0 12 0 a6 6 0 1 0 -12 0zM2142 996 a6 6 0 1 0 12 0 a6 6 0 1 0 -12 0zM270 1116 a6 6 0 1 0 12 0 a6 6 0 1 0 -12 0zM1998 1020 a6 6 0 1 0 12 0 a6 6 0 1 0 -12 0zM2286 972 a6 6 0 1 0 12 0 a6 6 0 1 0 -12 0zM1470 1068 a6 6 0 1 0 12 0 a6 6 0 1 0 -12 0z" fill="rgba(137, 248, 206, 1)"></path><path d="M2412 564L2388 540M1740 564L1716 540L1692 540L1668 540L1644 540M1812 540L1788 540L1764 540L1740 540M2484 588L2460 564M2340 564L2316 540L2292 540L2268 540M1548 540L1524 516L1500 516L1476 516L1452 516M2028 564L2004 564M2244 564L2220 540M2364 564L2340 540M1596 564L1572 564M1572 540L1548 516M2580 612L2556 612L2532 588L2508 588L2484 588L2460 588L2436 564L2412 564L2388 564L2364 564L2340 564L2316 564L2292 564L2268 564L2244 564L2220 564L2196 564L2172 564L2148 564L2124 564L2100 564L2076 564L2052 564L2028 564L2004 540L1980 540L1956 540L1932 540L1908 540L1884 540L1860 540L1836 540L1812 540L1788 564L1764 564L1740 564L1716 564L1692 564L1668 564L1644 564L1620 564L1596 564L1572 540L1548 540L1524 540L1500 540L1476 540" stroke="rgba(222, 200, 237, 1)" stroke-width="4"></path><path d="M1470 540 a6 6 0 1 0 12 0 a6 6 0 1 0 -12 0zM2382 540 a6 6 0 1 0 12 0 a6 6 0 1 0 -12 0zM1638 540 a6 6 0 1 0 12 0 a6 6 0 1 0 -12 0zM1734 540 a6 6 0 1 0 12 0 a6 6 0 1 0 -12 0zM2454 564 a6 6 0 1 0 12 0 a6 6 0 1 0 -12 0zM2262 540 a6 6 0 1 0 12 0 a6 6 0 1 0 -12 0zM1446 516 a6 6 0 1 0 12 0 a6 6 0 1 0 -12 0zM1998 564 a6 6 0 1 0 12 0 a6 6 0 1 0 -12 0zM2214 540 a6 6 0 1 0 12 0 a6 6 0 1 0 -12 0zM2334 540 a6 6 0 1 0 12 0 a6 6 0 1 0 -12 0zM1566 564 a6 6 0 1 0 12 0 a6 6 0 1 0 -12 0zM1542 516 a6 6 0 1 0 12 0 a6 6 0 1 0 -12 0z" fill="rgba(222, 200, 237, 1)"></path><path d="M780 1188L756 1212L732 1212L708 1212L684 1212L660 1236L636 1236L612 1236L588 1236L564 1236L540 1236L516 1236L492 1236L468 1236L444 1212L420 1212L396 1212L372 1212L348 1212L324 1212L300 1212L276 1212L252 1212L228 1212L204 1212L180 1212L156 1212L132 1212L108 1212L84 1236L60 1260M1164 1140L1140 1116L1116 1116L1092 1116L1068 1116L1044 1140L1020 1140L996 1140L972 1140L948 1140L924 1140L900 1140L876 1140L852 1140L828 1140M2340 1068L2316 1044L2292 1044L2268 1020M2364 1068L2340 1044L2316 1020L2292 1020M1812 1116L1788 1092M564 1212L540 1188L516 1188L492 1188L468 1188L444 1188L420 1188L396 1188L372 1188L348 1188L324 1188L300 1188L276 1188L252 1188L228 1188L204 1188L180 1188L156 1188L132 1188L108 1188L84 1188L60 1188M2268 1044L2244 1068L2220 1068L2196 1068L2172 1068M900 1188L876 1164L852 1164L828 1164L804 1164M2028 1044L2004 1068L1980 1068L1956 1092M948 1188L924 1212L900 1212L876 1212L852 1212L828 1212L804 1212L780 1212L756 1236L732 1236L708 1236L684 1260L660 1260L636 1260L612 1260L588 1260L564 1260L540 1260L516 1284L492 1284L468 1260L444 1236L420 1236L396 1260L372 1260L348 1260M2076 1044L2052 1068L2028 1068L2004 1092L1980 1092M756 1188L732 1164L708 1164L684 1164L660 1164L636 1164L612 1164L588 1164L564 1164L540 1164L516 1164L492 1164M2292 1068L2268 1068L2244 1092L2220 1092L2196 1092L2172 1092L2148 1092L2124 1092L2100 1092L2076 1092L2052 1092L2028 1092M636 1212L612 1188L588 1188L564 1188M1356 1140L1332 1164L1308 1164L1284 1140L1260 1140L1236 1140L1212 1164L1188 1164L1164 1164L1140 1164L1116 1188L1092 1188L1068 1188L1044 1188L1020 1212L996 1212L972 1212L948 1212L924 1236L900 1236L876 1236L852 1260L828 1260L804 1260L780 1260L756 1284L732 1284L708 1284L684 1284L660 1284L636 1284L612 1284L588 1284M2148 1068L2124 1044M2124 1068L2100 1068L2076 1068M972 1188L948 1164L924 1164L900 1164M1212 1140L1188 1116L1164 1116M2172 1044L2148 1044M1092 1164L1068 1140M1236 1116L1212 1116M2580 996L2556 996L2532 996L2508 996L2484 996L2460 1020L2436 1044L2412 1044L2388 1068L2364 1068L2340 1068L2316 1068L2292 1068L2268 1044L2244 1044L2220 1044L2196 1044L2172 1044L2148 1068L2124 1068L2100 1044L2076 1044L2052 1044L2028 1044L2004 1044L1980 1044L1956 1068L1932 1092L1908 1092L1884 1092L1860 1092L1836 1092L1812 1116L1788 1116L1764 1116L1740 1116L1716 1116L1692 1116L1668 1116L1644 1116L1620 1116L1596 1116L1572 1116L1548 1116L1524 1116L1500 1140L1476 1140L1452 1140L1428 1140L1404 1140L1380 1140L1356 1140L1332 1140L1308 1140L1284 1116L1260 1116L1236 1116L1212 1140L1188 1140L1164 1140L1140 1140L1116 1164L1092 1164L1068 1164L1044 1164L1020 1164L996 1164L972 1188L948 1188L924 1188L900 1188L876 1188L852 1188L828 1188L804 1188L780 1188L756 1188L732 1188L708 1188L684 1188L660 1212L636 1212L612 1212L588 1212L564 1212L540 1212L516 1212L492 1212L468 1212" stroke="rgba(245, 250, 199, 1)" stroke-width="4"></path><path d="M462 1212 a6 6 0 1 0 12 0 a6 6 0 1 0 -12 0zM54 1260 a6 6 0 1 0 12 0 a6 6 0 1 0 -12 0zM822 1140 a6 6 0 1 0 12 0 a6 6 0 1 0 -12 0zM2262 1020 a6 6 0 1 0 12 0 a6 6 0 1 0 -12 0zM2286 1020 a6 6 0 1 0 12 0 a6 6 0 1 0 -12 0zM1782 1092 a6 6 0 1 0 12 0 a6 6 0 1 0 -12 0zM54 1188 a6 6 0 1 0 12 0 a6 6 0 1 0 -12 0zM2166 1068 a6 6 0 1 0 12 0 a6 6 0 1 0 -12 0zM798 1164 a6 6 0 1 0 12 0 a6 6 0 1 0 -12 0zM1950 1092 a6 6 0 1 0 12 0 a6 6 0 1 0 -12 0zM342 1260 a6 6 0 1 0 12 0 a6 6 0 1 0 -12 0zM1974 1092 a6 6 0 1 0 12 0 a6 6 0 1 0 -12 0zM486 1164 a6 6 0 1 0 12 0 a6 6 0 1 0 -12 0zM2022 1092 a6 6 0 1 0 12 0 a6 6 0 1 0 -12 0zM558 1188 a6 6 0 1 0 12 0 a6 6 0 1 0 -12 0zM582 1284 a6 6 0 1 0 12 0 a6 6 0 1 0 -12 0zM2118 1044 a6 6 0 1 0 12 0 a6 6 0 1 0 -12 0zM2070 1068 a6 6 0 1 0 12 0 a6 6 0 1 0 -12 0zM894 1164 a6 6 0 1 0 12 0 a6 6 0 1 0 -12 0zM1158 1116 a6 6 0 1 0 12 0 a6 6 0 1 0 -12 0zM2142 1044 a6 6 0 1 0 12 0 a6 6 0 1 0 -12 0zM1062 1140 a6 6 0 1 0 12 0 a6 6 0 1 0 -12 0zM1206 1116 a6 6 0 1 0 12 0 a6 6 0 1 0 -12 0z" fill="rgba(245, 250, 199, 1)"></path><path d="M2508 564L2484 564M2580 588L2556 588L2532 564L2508 564L2484 540L2460 540L2436 540" stroke="rgba(222, 200, 237, 1)" stroke-width="4"></path><path d="M2430 540 a6 6 0 1 0 12 0 a6 6 0 1 0 -12 0zM2478 564 a6 6 0 1 0 12 0 a6 6 0 1 0 -12 0z" fill="rgba(222, 200, 237, 1)"></path><path d="M1380 1188L1356 1164M1596 1140L1572 1164M1404 1188L1380 1164M1764 1140L1740 1164L1716 1164L1692 1164L1668 1164M2004 1116L1980 1140L1956 1140L1932 1140L1908 1140L1884 1140M2172 1116L2148 1140L2124 1140M2196 1116L2172 1140M2028 1116L2004 1140L1980 1164L1956 1164L1932 1164L1908 1164L1884 1164M1452 1164L1428 1164L1404 1164M1812 1140L1788 1164M2292 1116L2268 1092M1644 1140L1620 1164L1596 1164M1548 1140L1524 1164M2580 1020L2556 1020L2532 1020L2508 1020L2484 1020L2460 1044L2436 1068L2412 1068L2388 1092L2364 1092L2340 1092L2316 1092L2292 1116L2268 1116L2244 1116L2220 1116L2196 1116L2172 1116L2148 1116L2124 1116L2100 1116L2076 1116L2052 1116L2028 1116L2004 1116L1980 1116L1956 1116L1932 1116L1908 1116L1884 1116L1860 1116L1836 1116L1812 1140L1788 1140L1764 1140L1740 1140L1716 1140L1692 1140L1668 1140L1644 1140L1620 1140L1596 1140L1572 1140L1548 1140L1524 1140L1500 1164L1476 1164L1452 1164L1428 1188L1404 1188L1380 1188L1356 1188L1332 1188L1308 1188L1284 1188" stroke="rgba(137, 248, 206, 1)" stroke-width="4"></path><path d="M1278 1188 a6 6 0 1 0 12 0 a6 6 0 1 0 -12 0zM1350 1164 a6 6 0 1 0 12 0 a6 6 0 1 0 -12 0zM1566 1164 a6 6 0 1 0 12 0 a6 6 0 1 0 -12 0zM1374 1164 a6 6 0 1 0 12 0 a6 6 0 1 0 -12 0zM1662 1164 a6 6 0 1 0 12 0 a6 6 0 1 0 -12 0zM1878 1140 a6 6 0 1 0 12 0 a6 6 0 1 0 -12 0zM2118 1140 a6 6 0 1 0 12 0 a6 6 0 1 0 -12 0zM2166 1140 a6 6 0 1 0 12 0 a6 6 0 1 0 -12 0zM1878 1164 a6 6 0 1 0 12 0 a6 6 0 1 0 -12 0zM1398 1164 a6 6 0 1 0 12 0 a6 6 0 1 0 -12 0zM1782 1164 a6 6 0 1 0 12 0 a6 6 0 1 0 -12 0zM2262 1092 a6 6 0 1 0 12 0 a6 6 0 1 0 -12 0zM1590 1164 a6 6 0 1 0 12 0 a6 6 0 1 0 -12 0zM1518 1164 a6 6 0 1 0 12 0 a6 6 0 1 0 -12 0z" fill="rgba(137, 248, 206, 1)"></path><path d="M1452 492L1428 468M492 468L468 492L444 492L420 492L396 492L372 492L348 492L324 492L300 492M588 468L564 468M1644 492L1620 516L1596 516L1572 516M1116 468L1092 492M1308 492L1284 492M1260 468L1236 444L1212 444M2100 540L2076 516L2052 516L2028 516M2532 540L2508 540M1692 516L1668 516L1644 516M2172 540L2148 516L2124 516L2100 516L2076 492L2052 492M852 468L828 492L804 492L780 492L756 492L732 492L708 492L684 492L660 492L636 492M468 468L444 444L420 444L396 444L372 444L348 444L324 444M804 468L780 444L756 444L732 444M1524 492L1500 468M684 468L660 444L636 444L612 444L588 444L564 444L540 444L516 444L492 444L468 420L444 420L420 420L396 420L372 420L348 420L324 420L300 420M828 468L804 444M900 468L876 444L852 444L828 444M1332 492L1308 468L1284 444L1260 444M2220 516L2196 516L2172 516M1404 492L1380 516L1356 516M1428 492L1404 516L1380 540M1380 492L1356 468L1332 468L1308 444M2580 564L2556 564L2532 540L2508 516L2484 516L2460 516L2436 516L2412 516L2388 516L2364 516L2340 516L2316 516L2292 516L2268 516L2244 516L2220 516L2196 540L2172 540L2148 540L2124 540L2100 540L2076 540L2052 540L2028 540L2004 516L1980 516L1956 516L1932 516L1908 516L1884 516L1860 516L1836 516L1812 516L1788 516L1764 516L1740 516L1716 516L1692 516L1668 492L1644 492L1620 492L1596 492L1572 492L1548 492L1524 492L1500 492L1476 492L1452 492L1428 492L1404 492L1380 492L1356 492L1332 492L1308 492L1284 468L1260 468L1236 468L1212 468L1188 468L1164 468L1140 468L1116 468L1092 468L1068 468L1044 468L1020 468L996 468L972 468L948 468L924 468L900 468L876 468L852 468L828 468L804 468L780 468L756 468L732 468L708 468L684 468L660 468L636 468L612 468L588 468L564 492L540 492L516 468L492 468L468 468L444 468L420 468L396 468L372 468L348 468L324 468" stroke="rgba(137, 248, 206, 1)" stroke-width="4"></path><path d="M318 468 a6 6 0 1 0 12 0 a6 6 0 1 0 -12 0zM1422 468 a6 6 0 1 0 12 0 a6 6 0 1 0 -12 0zM294 492 a6 6 0 1 0 12 0 a6 6 0 1 0 -12 0zM558 468 a6 6 0 1 0 12 0 a6 6 0 1 0 -12 0zM1566 516 a6 6 0 1 0 12 0 a6 6 0 1 0 -12 0zM1086 492 a6 6 0 1 0 12 0 a6 6 0 1 0 -12 0zM1278 492 a6 6 0 1 0 12 0 a6 6 0 1 0 -12 0zM1206 444 a6 6 0 1 0 12 0 a6 6 0 1 0 -12 0zM2022 516 a6 6 0 1 0 12 0 a6 6 0 1 0 -12 0zM2502 540 a6 6 0 1 0 12 0 a6 6 0 1 0 -12 0zM1638 516 a6 6 0 1 0 12 0 a6 6 0 1 0 -12 0zM2046 492 a6 6 0 1 0 12 0 a6 6 0 1 0 -12 0zM630 492 a6 6 0 1 0 12 0 a6 6 0 1 0 -12 0zM318 444 a6 6 0 1 0 12 0 a6 6 0 1 0 -12 0zM726 444 a6 6 0 1 0 12 0 a6 6 0 1 0 -12 0zM1494 468 a6 6 0 1 0 12 0 a6 6 0 1 0 -12 0zM294 420 a6 6 0 1 0 12 0 a6 6 0 1 0 -12 0zM798 444 a6 6 0 1 0 12 0 a6 6 0 1 0 -12 0zM822 444 a6 6 0 1 0 12 0 a6 6 0 1 0 -12 0zM1254 444 a6 6 0 1 0 12 0 a6 6 0 1 0 -12 0zM2166 516 a6 6 0 1 0 12 0 a6 6 0 1 0 -12 0zM1350 516 a6 6 0 1 0 12 0 a6 6 0 1 0 -12 0zM1374 540 a6 6 0 1 0 12 0 a6 6 0 1 0 -12 0zM1302 444 a6 6 0 1 0 12 0 a6 6 0 1 0 -12 0z" fill="rgba(137, 248, 206, 1)"></path><path d="M1500 1188L1476 1212L1452 1212M2220 1164L2196 1140M1284 1212L1260 1236M1332 1212L1308 1236L1284 1236M1524 1188L1500 1212L1476 1236M1620 1188L1596 1212L1572 1212L1548 1212L1524 1212L1500 1236M2100 1164L2076 1140L2052 1140L2028 1140M2028 1164L2004 1164M1212 1236L1188 1212L1164 1212L1140 1212M2244 1164L2220 1140M1164 1236L1140 1260L1116 1260L1092 1260L1068 1260L1044 1260L1020 1260L996 1260L972 1236L948 1236L924 1260L900 1260L876 1260L852 1284L828 1284L804 1284L780 1284L756 1308L732 1308L708 1308L684 1308L660 1308L636 1308M1836 1188L1812 1164M1140 1236L1116 1236L1092 1236L1068 1236M2340 1116L2316 1116M1260 1212L1236 1212L1212 1212L1188 1188L1164 1188L1140 1188M2580 1044L2556 1044L2532 1044L2508 1044L2484 1044L2460 1068L2436 1092L2412 1092L2388 1116L2364 1116L2340 1116L2316 1140L2292 1140L2268 1140L2244 1164L2220 1164L2196 1164L2172 1164L2148 1164L2124 1164L2100 1164L2076 1164L2052 1164L2028 1164L2004 1188L1980 1188L1956 1188L1932 1188L1908 1188L1884 1188L1860 1188L1836 1188L1812 1188L1788 1188L1764 1188L1740 1188L1716 1188L1692 1188L1668 1188L1644 1188L1620 1188L1596 1188L1572 1188L1548 1188L1524 1188L1500 1188L1476 1188L1452 1188L1428 1212L1404 1212L1380 1212L1356 1212L1332 1212L1308 1212L1284 1212L1260 1212L1236 1236L1212 1236L1188 1236L1164 1236L1140 1236L1116 1212L1092 1212L1068 1212" stroke="rgba(245, 250, 199, 1)" stroke-width="4"></path><path d="M1062 1212 a6 6 0 1 0 12 0 a6 6 0 1 0 -12 0zM1446 1212 a6 6 0 1 0 12 0 a6 6 0 1 0 -12 0zM2190 1140 a6 6 0 1 0 12 0 a6 6 0 1 0 -12 0zM1254 1236 a6 6 0 1 0 12 0 a6 6 0 1 0 -12 0zM1278 1236 a6 6 0 1 0 12 0 a6 6 0 1 0 -12 0zM1470 1236 a6 6 0 1 0 12 0 a6 6 0 1 0 -12 0zM1494 1236 a6 6 0 1 0 12 0 a6 6 0 1 0 -12 0zM2022 1140 a6 6 0 1 0 12 0 a6 6 0 1 0 -12 0zM1998 1164 a6 6 0 1 0 12 0 a6 6 0 1 0 -12 0zM1134 1212 a6 6 0 1 0 12 0 a6 6 0 1 0 -12 0zM2214 1140 a6 6 0 1 0 12 0 a6 6 0 1 0 -12 0zM630 1308 a6 6 0 1 0 12 0 a6 6 0 1 0 -12 0zM1806 1164 a6 6 0 1 0 12 0 a6 6 0 1 0 -12 0zM1062 1236 a6 6 0 1 0 12 0 a6 6 0 1 0 -12 0zM2310 1116 a6 6 0 1 0 12 0 a6 6 0 1 0 -12 0zM1134 1188 a6 6 0 1 0 12 0 a6 6 0 1 0 -12 0z" fill="rgba(245, 250, 199, 1)"></path><path d="M1572 468L1548 444M2172 492L2148 492L2124 492L2100 492M1740 492L1716 468L1692 468L1668 444L1644 444L1620 444L1596 444L1572 444M2196 492L2172 468L2148 444L2124 444L2100 444L2076 444L2052 444L2028 444L2004 444L1980 444L1956 444L1932 444M1980 492L1956 468L1932 468L1908 468L1884 468M1788 492L1764 468M2268 492L2244 468L2220 468L2196 468L2172 444M1860 492L1836 468L1812 468L1788 468L1764 444M2004 492L1980 468M2292 492L2268 468L2244 444L2220 444M2052 468L2028 468L2004 468M2580 540L2556 540L2532 516L2508 492L2484 492L2460 492L2436 492L2412 492L2388 492L2364 492L2340 492L2316 492L2292 492L2268 492L2244 492L2220 492L2196 492L2172 492L2148 468L2124 468L2100 468L2076 468L2052 468L2028 492L2004 492L1980 492L1956 492L1932 492L1908 492L1884 492L1860 492L1836 492L1812 492L1788 492L1764 492L1740 492L1716 492L1692 492L1668 468L1644 468L1620 468L1596 468L1572 468L1548 468" stroke="rgba(137, 248, 206, 1)" stroke-width="4"></path><path d="M1542 468 a6 6 0 1 0 12 0 a6 6 0 1 0 -12 0zM1542 444 a6 6 0 1 0 12 0 a6 6 0 1 0 -12 0zM2094 492 a6 6 0 1 0 12 0 a6 6 0 1 0 -12 0zM1566 444 a6 6 0 1 0 12 0 a6 6 0 1 0 -12 0zM1926 444 a6 6 0 1 0 12 0 a6 6 0 1 0 -12 0zM1878 468 a6 6 0 1 0 12 0 a6 6 0 1 0 -12 0zM1758 468 a6 6 0 1 0 12 0 a6 6 0 1 0 -12 0zM2166 444 a6 6 0 1 0 12 0 a6 6 0 1 0 -12 0zM1758 444 a6 6 0 1 0 12 0 a6 6 0 1 0 -12 0zM1974 468 a6 6 0 1 0 12 0 a6 6 0 1 0 -12 0zM2214 444 a6 6 0 1 0 12 0 a6 6 0 1 0 -12 0zM1998 468 a6 6 0 1 0 12 0 a6 6 0 1 0 -12 0z" fill="rgba(137, 248, 206, 1)"></path><path d="M1884 1212L1860 1236L1836 1236L1812 1236L1788 1236L1764 1236L1740 1236L1716 1236L1692 1236L1668 1236L1644 1236L1620 1260L1596 1260L1572 1260M1212 1260L1188 1284L1164 1308L1140 1308L1116 1332L1092 1332L1068 1332L1044 1332L1020 1332L996 1332M2196 1188L2172 1212L2148 1212M2076 1188L2052 1212L2028 1212M1428 1236L1404 1260L1380 1260L1356 1260M1284 1260L1260 1284L1236 1284L1212 1284M2100 1188L2076 1212M2364 1164L2340 1140M1500 1260L1476 1284L1452 1284L1428 1284L1404 1284L1380 1284L1356 1284L1332 1284L1308 1284L1284 1284L1260 1308L1236 1308L1212 1308L1188 1332L1164 1332L1140 1332L1116 1356L1092 1356L1068 1356L1044 1356L1020 1356M2388 1140L2364 1140M1476 1260L1452 1260L1428 1260M2292 1164L2268 1188M2124 1188L2100 1212M1548 1236L1524 1236M1524 1260L1500 1284L1476 1308L1452 1308L1428 1308L1404 1308L1380 1308L1356 1308L1332 1308M2580 1068L2556 1068L2532 1068L2508 1068L2484 1068L2460 1092L2436 1116L2412 1116L2388 1140L2364 1164L2340 1164L2316 1164L2292 1164L2268 1164L2244 1188L2220 1188L2196 1188L2172 1188L2148 1188L2124 1188L2100 1188L2076 1188L2052 1188L2028 1188L2004 1212L1980 1212L1956 1212L1932 1212L1908 1212L1884 1212L1860 1212L1836 1212L1812 1212L1788 1212L1764 1212L1740 1212L1716 1212L1692 1212L1668 1212L1644 1212L1620 1236L1596 1236L1572 1236L1548 1236L1524 1260L1500 1260L1476 1260L1452 1236L1428 1236L1404 1236L1380 1236L1356 1236L1332 1260L1308 1260L1284 1260L1260 1260L1236 1260L1212 1260L1188 1260L1164 1284L1140 1284" stroke="rgba(204, 153, 249, 1)" stroke-width="4"></path><path d="M1134 1284 a6 6 0 1 0 12 0 a6 6 0 1 0 -12 0zM1566 1260 a6 6 0 1 0 12 0 a6 6 0 1 0 -12 0zM990 1332 a6 6 0 1 0 12 0 a6 6 0 1 0 -12 0zM2142 1212 a6 6 0 1 0 12 0 a6 6 0 1 0 -12 0zM2022 1212 a6 6 0 1 0 12 0 a6 6 0 1 0 -12 0zM1350 1260 a6 6 0 1 0 12 0 a6 6 0 1 0 -12 0zM1206 1284 a6 6 0 1 0 12 0 a6 6 0 1 0 -12 0zM2070 1212 a6 6 0 1 0 12 0 a6 6 0 1 0 -12 0zM2334 1140 a6 6 0 1 0 12 0 a6 6 0 1 0 -12 0zM1014 1356 a6 6 0 1 0 12 0 a6 6 0 1 0 -12 0zM2358 1140 a6 6 0 1 0 12 0 a6 6 0 1 0 -12 0zM1422 1260 a6 6 0 1 0 12 0 a6 6 0 1 0 -12 0zM2262 1188 a6 6 0 1 0 12 0 a6 6 0 1 0 -12 0zM2094 1212 a6 6 0 1 0 12 0 a6 6 0 1 0 -12 0zM1518 1236 a6 6 0 1 0 12 0 a6 6 0 1 0 -12 0zM1326 1308 a6 6 0 1 0 12 0 a6 6 0 1 0 -12 0z" fill="rgba(204, 153, 249, 1)"></path><path d="M2340 468L2316 468L2292 468M2580 516L2556 516L2532 492L2508 468L2484 468L2460 468L2436 468L2412 468L2388 468L2364 468L2340 468L2316 444" stroke="rgba(222, 200, 237, 1)" stroke-width="4"></path><path d="M2310 444 a6 6 0 1 0 12 0 a6 6 0 1 0 -12 0zM2286 468 a6 6 0 1 0 12 0 a6 6 0 1 0 -12 0z" fill="rgba(222, 200, 237, 1)"></path><path d="M1908 1260L1884 1236M2268 1212L2244 1236L2220 1236M1668 1284L1644 1260M1572 1284L1548 1284L1524 1284L1500 1308L1476 1332L1452 1332L1428 1332L1404 1332L1380 1332L1356 1332M1740 1284L1716 1260M1764 1284L1740 1260M1860 1284L1836 1260L1812 1260L1788 1260L1764 1260M2220 1212L2196 1212M2340 1188L2316 1188L2292 1188M1620 1284L1596 1308L1572 1308L1548 1308L1524 1308L1500 1332M1956 1236L1932 1236L1908 1236M2580 1092L2556 1092L2532 1092L2508 1092L2484 1092L2460 1116L2436 1140L2412 1140L2388 1164L2364 1188L2340 1188L2316 1212L2292 1212L2268 1212L2244 1212L2220 1212L2196 1236L2172 1236L2148 1236L2124 1236L2100 1236L2076 1236L2052 1236L2028 1236L2004 1236L1980 1236L1956 1236L1932 1260L1908 1260L1884 1260L1860 1284L1836 1284L1812 1284L1788 1284L1764 1284L1740 1284L1716 1284L1692 1284L1668 1284L1644 1284L1620 1284L1596 1284L1572 1284L1548 1260" stroke="rgba(245, 250, 199, 1)" stroke-width="4"></path><path d="M1542 1260 a6 6 0 1 0 12 0 a6 6 0 1 0 -12 0zM1878 1236 a6 6 0 1 0 12 0 a6 6 0 1 0 -12 0zM2214 1236 a6 6 0 1 0 12 0 a6 6 0 1 0 -12 0zM1638 1260 a6 6 0 1 0 12 0 a6 6 0 1 0 -12 0zM1350 1332 a6 6 0 1 0 12 0 a6 6 0 1 0 -12 0zM1710 1260 a6 6 0 1 0 12 0 a6 6 0 1 0 -12 0zM1734 1260 a6 6 0 1 0 12 0 a6 6 0 1 0 -12 0zM1758 1260 a6 6 0 1 0 12 0 a6 6 0 1 0 -12 0zM2190 1212 a6 6 0 1 0 12 0 a6 6 0 1 0 -12 0zM2286 1188 a6 6 0 1 0 12 0 a6 6 0 1 0 -12 0zM1494 1332 a6 6 0 1 0 12 0 a6 6 0 1 0 -12 0zM1902 1236 a6 6 0 1 0 12 0 a6 6 0 1 0 -12 0z" fill="rgba(245, 250, 199, 1)"></path><path d="M1524 420L1500 396L1476 372L1452 372L1428 372L1404 372L1380 372L1356 372L1332 372L1308 372L1284 372L1260 372L1236 372L1212 372L1188 372L1164 372L1140 372L1116 372L1092 372L1068 372L1044 372L1020 372L996 396L972 396L948 396L924 396L900 396L876 396L852 396L828 396L804 396L780 396L756 396L732 396L708 396L684 396L660 396M1164 444L1140 420L1116 420L1092 420L1068 420L1044 420L1020 420L996 420L972 420L948 420L924 420M1332 420L1308 396L1284 396L1260 396M1788 372L1764 396L1740 396L1716 396L1692 396L1668 396L1644 420M1644 396L1620 372L1596 372L1572 372M2100 420L2076 396M1884 372L1860 396L1836 396L1812 396L1788 420L1764 420L1740 444L1716 444L1692 444L1668 420M1452 420L1428 444L1404 444L1380 444L1356 444L1332 444M2028 372L2004 396L1980 396L1956 420L1932 420L1908 420L1884 420L1860 420L1836 420L1812 420L1788 444M2148 420L2124 396L2100 396M1476 420L1452 444M1620 420L1596 396L1572 396L1548 396L1524 396M1236 420L1212 396L1188 396L1164 396L1140 396L1116 396L1092 396L1068 396L1044 396L1020 396M636 396L612 420L588 420L564 420L540 420L516 420M612 396L588 372M1668 372L1644 372L1620 348L1596 348L1572 348L1548 348L1524 372L1500 372M1188 444L1164 420M1428 420L1404 396L1380 396L1356 396L1332 396M2052 396L2028 396L2004 420L1980 420M924 444L900 444M2292 420L2268 444M2580 492L2556 492L2532 468L2508 444L2484 444L2460 444L2436 444L2412 444L2388 444L2364 444L2340 444L2316 420L2292 420L2268 420L2244 420L2220 420L2196 420L2172 420L2148 420L2124 420L2100 420L2076 420L2052 396L2028 372L2004 372L1980 372L1956 372L1932 372L1908 372L1884 372L1860 372L1836 372L1812 372L1788 372L1764 372L1740 372L1716 372L1692 372L1668 372L1644 396L1620 420L1596 420L1572 420L1548 420L1524 420L1500 420L1476 420L1452 420L1428 420L1404 420L1380 420L1356 420L1332 420L1308 420L1284 420L1260 420L1236 420L1212 420L1188 444L1164 444L1140 444L1116 444L1092 444L1068 444L1044 444L1020 444L996 444L972 444L948 444L924 444L900 420L876 420L852 420L828 420L804 420L780 420L756 420L732 420L708 420L684 420L660 420L636 396L612 396L588 396" stroke="rgba(222, 200, 237, 1)" stroke-width="4"></path><path d="M582 396 a6 6 0 1 0 12 0 a6 6 0 1 0 -12 0zM654 396 a6 6 0 1 0 12 0 a6 6 0 1 0 -12 0zM918 420 a6 6 0 1 0 12 0 a6 6 0 1 0 -12 0zM1254 396 a6 6 0 1 0 12 0 a6 6 0 1 0 -12 0zM1638 420 a6 6 0 1 0 12 0 a6 6 0 1 0 -12 0zM1566 372 a6 6 0 1 0 12 0 a6 6 0 1 0 -12 0zM2070 396 a6 6 0 1 0 12 0 a6 6 0 1 0 -12 0zM1662 420 a6 6 0 1 0 12 0 a6 6 0 1 0 -12 0zM1326 444 a6 6 0 1 0 12 0 a6 6 0 1 0 -12 0zM1782 444 a6 6 0 1 0 12 0 a6 6 0 1 0 -12 0zM2094 396 a6 6 0 1 0 12 0 a6 6 0 1 0 -12 0zM1446 444 a6 6 0 1 0 12 0 a6 6 0 1 0 -12 0zM1518 396 a6 6 0 1 0 12 0 a6 6 0 1 0 -12 0zM1014 396 a6 6 0 1 0 12 0 a6 6 0 1 0 -12 0zM510 420 a6 6 0 1 0 12 0 a6 6 0 1 0 -12 0zM582 372 a6 6 0 1 0 12 0 a6 6 0 1 0 -12 0zM1494 372 a6 6 0 1 0 12 0 a6 6 0 1 0 -12 0zM1158 420 a6 6 0 1 0 12 0 a6 6 0 1 0 -12 0zM1326 396 a6 6 0 1 0 12 0 a6 6 0 1 0 -12 0zM1974 420 a6 6 0 1 0 12 0 a6 6 0 1 0 -12 0zM894 444 a6 6 0 1 0 12 0 a6 6 0 1 0 -12 0zM2262 444 a6 6 0 1 0 12 0 a6 6 0 1 0 -12 0z" fill="rgba(222, 200, 237, 1)"></path><path d="M1596 1356L1572 1332L1548 1332L1524 1332M2532 1116L2508 1116L2484 1116M2292 1236L2268 1236M1668 1332L1644 1308L1620 1308M1620 1332L1596 1332M1692 1308L1668 1308M1332 1356L1308 1332L1284 1332M2580 1116L2556 1116L2532 1116L2508 1140L2484 1140L2460 1140L2436 1164L2412 1164L2388 1188L2364 1212L2340 1212L2316 1236L2292 1236L2268 1260L2244 1260L2220 1260L2196 1260L2172 1260L2148 1260L2124 1260L2100 1260L2076 1260L2052 1260L2028 1260L2004 1260L1980 1260L1956 1260L1932 1284L1908 1284L1884 1284L1860 1308L1836 1308L1812 1308L1788 1308L1764 1308L1740 1308L1716 1308L1692 1308L1668 1332L1644 1332L1620 1332L1596 1356L1572 1356L1548 1356L1524 1356L1500 1356L1476 1356L1452 1356L1428 1356L1404 1356L1380 1356L1356 1356L1332 1356L1308 1356L1284 1356" stroke="rgba(137, 248, 206, 1)" stroke-width="4"></path><path d="M1278 1356 a6 6 0 1 0 12 0 a6 6 0 1 0 -12 0zM1518 1332 a6 6 0 1 0 12 0 a6 6 0 1 0 -12 0zM2478 1116 a6 6 0 1 0 12 0 a6 6 0 1 0 -12 0zM2262 1236 a6 6 0 1 0 12 0 a6 6 0 1 0 -12 0zM1614 1308 a6 6 0 1 0 12 0 a6 6 0 1 0 -12 0zM1590 1332 a6 6 0 1 0 12 0 a6 6 0 1 0 -12 0zM1662 1308 a6 6 0 1 0 12 0 a6 6 0 1 0 -12 0zM1278 1332 a6 6 0 1 0 12 0 a6 6 0 1 0 -12 0z" fill="rgba(137, 248, 206, 1)"></path><path d="M828 372L804 348L780 348L756 348M252 396L228 372L204 372L180 372L156 372L132 372L108 372L84 372L60 372M1236 348L1212 324L1188 324M2388 420L2364 396M564 372L540 348L516 348L492 348L468 348L444 348L420 348L396 348L372 372L348 372L324 372M2364 420L2340 420M1428 348L1404 324M948 372L924 348L900 348L876 348L852 348L828 348M588 348L564 348M444 372L420 372L396 372M228 396L204 420L180 444L156 444L132 444L108 444L84 444L60 444M660 348L636 372L612 372M1476 348L1452 324L1428 324M540 372L516 396M684 348L660 372M1380 348L1356 324L1332 324L1308 324L1284 324L1260 324L1236 324M1668 348L1644 348M492 372L468 396L444 396M972 372L948 348L924 324L900 324M300 396L276 372L252 372L228 348L204 348L180 348L156 348L132 348L108 348L84 348L60 348M180 396L156 420L132 420L108 420M2412 420L2388 396M276 396L252 420L228 420M996 372L972 348L948 324M1524 348L1500 324L1476 324M2580 468L2556 444L2532 444L2508 420L2484 420L2460 420L2436 420L2412 420L2388 420L2364 420L2340 396L2316 396L2292 396L2268 396L2244 396L2220 396L2196 396L2172 396L2148 372L2124 372L2100 372L2076 372L2052 372L2028 348L2004 348L1980 348L1956 348L1932 348L1908 348L1884 348L1860 348L1836 348L1812 348L1788 348L1764 348L1740 348L1716 348L1692 348L1668 348L1644 324L1620 324L1596 324L1572 324L1548 324L1524 348L1500 348L1476 348L1452 348L1428 348L1404 348L1380 348L1356 348L1332 348L1308 348L1284 348L1260 348L1236 348L1212 348L1188 348L1164 348L1140 348L1116 348L1092 348L1068 348L1044 348L1020 348L996 372L972 372L948 372L924 372L900 372L876 372L852 372L828 372L804 372L780 372L756 372L732 372L708 372L684 348L660 348L636 348L612 348L588 348L564 372L540 372L516 372L492 372L468 372L444 372L420 396L396 396L372 396L348 396L324 396L300 396L276 396L252 396L228 396L204 396L180 396L156 396L132 396" stroke="rgba(204, 153, 249, 1)" stroke-width="4"></path><path d="M126 396 a6 6 0 1 0 12 0 a6 6 0 1 0 -12 0zM750 348 a6 6 0 1 0 12 0 a6 6 0 1 0 -12 0zM54 372 a6 6 0 1 0 12 0 a6 6 0 1 0 -12 0zM1182 324 a6 6 0 1 0 12 0 a6 6 0 1 0 -12 0zM2358 396 a6 6 0 1 0 12 0 a6 6 0 1 0 -12 0zM318 372 a6 6 0 1 0 12 0 a6 6 0 1 0 -12 0zM2334 420 a6 6 0 1 0 12 0 a6 6 0 1 0 -12 0zM1398 324 a6 6 0 1 0 12 0 a6 6 0 1 0 -12 0zM822 348 a6 6 0 1 0 12 0 a6 6 0 1 0 -12 0zM558 348 a6 6 0 1 0 12 0 a6 6 0 1 0 -12 0zM390 372 a6 6 0 1 0 12 0 a6 6 0 1 0 -12 0zM54 444 a6 6 0 1 0 12 0 a6 6 0 1 0 -12 0zM606 372 a6 6 0 1 0 12 0 a6 6 0 1 0 -12 0zM1422 324 a6 6 0 1 0 12 0 a6 6 0 1 0 -12 0zM510 396 a6 6 0 1 0 12 0 a6 6 0 1 0 -12 0zM654 372 a6 6 0 1 0 12 0 a6 6 0 1 0 -12 0zM1230 324 a6 6 0 1 0 12 0 a6 6 0 1 0 -12 0zM1638 348 a6 6 0 1 0 12 0 a6 6 0 1 0 -12 0zM438 396 a6 6 0 1 0 12 0 a6 6 0 1 0 -12 0zM894 324 a6 6 0 1 0 12 0 a6 6 0 1 0 -12 0zM54 348 a6 6 0 1 0 12 0 a6 6 0 1 0 -12 0zM102 420 a6 6 0 1 0 12 0 a6 6 0 1 0 -12 0zM2382 396 a6 6 0 1 0 12 0 a6 6 0 1 0 -12 0zM222 420 a6 6 0 1 0 12 0 a6 6 0 1 0 -12 0zM942 324 a6 6 0 1 0 12 0 a6 6 0 1 0 -12 0zM1470 324 a6 6 0 1 0 12 0 a6 6 0 1 0 -12 0z" fill="rgba(204, 153, 249, 1)"></path><path d="M2148 1284L2124 1308M2556 1140L2532 1140M468 1404L444 1428L420 1428L396 1428L372 1428L348 1428L324 1428L300 1428L276 1428L252 1428L228 1428L204 1428L180 1428L156 1428L132 1428L108 1428L84 1428L60 1428M732 1404L708 1428L684 1428L660 1428L636 1428L612 1428L588 1428L564 1428L540 1428L516 1428L492 1428L468 1428L444 1452L420 1452L396 1452L372 1452L348 1452L324 1452L300 1452L276 1452L252 1476L228 1476L204 1476M876 1404L852 1380L828 1380L804 1380L780 1380L756 1380L732 1380L708 1380L684 1380L660 1380L636 1380L612 1380L588 1380L564 1380L540 1380M1212 1380L1188 1404M924 1404L900 1380L876 1356L852 1356L828 1356L804 1356L780 1356L756 1356M1068 1404L1044 1380L1020 1380L996 1380L972 1380L948 1380L924 1356L900 1356L876 1332L852 1332L828 1332L804 1332L780 1332L756 1332L732 1356L708 1356L684 1356L660 1356M1020 1404L996 1428L972 1428L948 1428M1284 1404L1260 1428L1236 1428L1212 1428L1188 1428L1164 1404L1140 1404L1116 1428L1092 1428L1068 1428L1044 1428L1020 1428L996 1452L972 1452M1140 1380L1116 1380L1092 1380L1068 1380M1260 1404L1236 1404L1212 1404M1332 1380L1308 1404L1284 1428L1260 1452L1236 1452L1212 1452L1188 1452L1164 1476L1140 1476M1644 1356L1620 1356M1404 1380L1380 1404L1356 1428L1332 1428L1308 1428L1284 1452L1260 1476L1236 1476L1212 1476M492 1404L468 1380L444 1380L420 1380L396 1380L372 1404L348 1404L324 1380L300 1380L276 1380L252 1356L228 1356L204 1356L180 1380L156 1380L132 1380L108 1380L84 1380L60 1380M1308 1380L1284 1380L1260 1380L1236 1356L1212 1356L1188 1356L1164 1356L1140 1356M756 1404L732 1428L708 1452L684 1452L660 1452L636 1452L612 1452L588 1476L564 1476L540 1476L516 1476L492 1500L468 1500L444 1524L420 1524L396 1524L372 1524L348 1524L324 1524L300 1524L276 1524L252 1524L228 1524L204 1500L180 1500L156 1476L132 1476L108 1476L84 1476L60 1476M1428 1380L1404 1404L1380 1428M2076 1284L2052 1308L2028 1308L2004 1308L1980 1308L1956 1308M900 1404L876 1428L852 1428L828 1428L804 1428L780 1428L756 1428L732 1452L708 1476L684 1476L660 1476L636 1476L612 1476L588 1500L564 1500L540 1500L516 1500L492 1524L468 1524L444 1548L420 1548L396 1548L372 1548L348 1548L324 1548M1476 1380L1452 1404L1428 1404L1404 1428L1380 1452L1356 1452M2580 1140L2556 1140L2532 1164L2508 1164L2484 1164L2460 1164L2436 1188L2412 1188L2388 1212L2364 1236L2340 1236L2316 1260L2292 1260L2268 1284L2244 1284L2220 1284L2196 1284L2172 1284L2148 1284L2124 1284L2100 1284L2076 1284L2052 1284L2028 1284L2004 1284L1980 1284L1956 1284L1932 1308L1908 1308L1884 1308L1860 1332L1836 1332L1812 1332L1788 1332L1764 1332L1740 1332L1716 1332L1692 1332L1668 1356L1644 1356L1620 1380L1596 1380L1572 1380L1548 1380L1524 1380L1500 1380L1476 1380L1452 1380L1428 1380L1404 1380L1380 1380L1356 1380L1332 1380L1308 1380L1284 1404L1260 1404L1236 1380L1212 1380L1188 1380L1164 1380L1140 1380L1116 1404L1092 1404L1068 1404L1044 1404L1020 1404L996 1404L972 1404L948 1404L924 1404L900 1404L876 1404L852 1404L828 1404L804 1404L780 1404L756 1404L732 1404L708 1404L684 1404L660 1404L636 1404L612 1404L588 1404L564 1404L540 1404L516 1404L492 1404L468 1404L444 1404" stroke="rgba(222, 200, 237, 1)" stroke-width="4"></path><path d="M438 1404 a6 6 0 1 0 12 0 a6 6 0 1 0 -12 0zM2118 1308 a6 6 0 1 0 12 0 a6 6 0 1 0 -12 0zM2526 1140 a6 6 0 1 0 12 0 a6 6 0 1 0 -12 0zM54 1428 a6 6 0 1 0 12 0 a6 6 0 1 0 -12 0zM198 1476 a6 6 0 1 0 12 0 a6 6 0 1 0 -12 0zM534 1380 a6 6 0 1 0 12 0 a6 6 0 1 0 -12 0zM1182 1404 a6 6 0 1 0 12 0 a6 6 0 1 0 -12 0zM750 1356 a6 6 0 1 0 12 0 a6 6 0 1 0 -12 0zM654 1356 a6 6 0 1 0 12 0 a6 6 0 1 0 -12 0zM942 1428 a6 6 0 1 0 12 0 a6 6 0 1 0 -12 0zM966 1452 a6 6 0 1 0 12 0 a6 6 0 1 0 -12 0zM1062 1380 a6 6 0 1 0 12 0 a6 6 0 1 0 -12 0zM1206 1404 a6 6 0 1 0 12 0 a6 6 0 1 0 -12 0zM1134 1476 a6 6 0 1 0 12 0 a6 6 0 1 0 -12 0zM1614 1356 a6 6 0 1 0 12 0 a6 6 0 1 0 -12 0zM1206 1476 a6 6 0 1 0 12 0 a6 6 0 1 0 -12 0zM54 1380 a6 6 0 1 0 12 0 a6 6 0 1 0 -12 0zM1134 1356 a6 6 0 1 0 12 0 a6 6 0 1 0 -12 0zM54 1476 a6 6 0 1 0 12 0 a6 6 0 1 0 -12 0zM1374 1428 a6 6 0 1 0 12 0 a6 6 0 1 0 -12 0zM1950 1308 a6 6 0 1 0 12 0 a6 6 0 1 0 -12 0zM318 1548 a6 6 0 1 0 12 0 a6 6 0 1 0 -12 0zM1350 1452 a6 6 0 1 0 12 0 a6 6 0 1 0 -12 0z" fill="rgba(222, 200, 237, 1)"></path><path d="M1548 1404L1524 1428L1500 1428L1476 1452M1980 1332L1956 1356L1932 1356M1764 1356L1740 1380L1716 1404L1692 1404L1668 1404L1644 1404L1620 1428L1596 1428L1572 1428L1548 1452L1524 1452L1500 1452L1476 1476L1452 1476L1428 1476L1404 1500L1380 1500M2508 1188L2484 1212L2460 1212L2436 1236L2412 1236L2388 1260L2364 1284L2340 1308L2316 1308L2292 1308L2268 1332M1500 1404L1476 1404M1836 1356L1812 1380L1788 1404L1764 1404L1740 1404M2052 1332L2028 1356L2004 1356L1980 1356L1956 1380L1932 1380M2196 1308L2172 1308M2124 1332L2100 1356L2076 1356L2052 1356L2028 1380L2004 1380L1980 1380L1956 1404L1932 1404M2244 1308L2220 1332L2196 1332L2172 1356L2148 1356L2124 1356L2100 1380L2076 1380L2052 1380L2028 1404L2004 1404M1908 1332L1884 1356L1860 1380L1836 1380L1812 1404M2100 1332L2076 1308M2580 1164L2556 1164L2532 1188L2508 1188L2484 1188L2460 1188L2436 1212L2412 1212L2388 1236L2364 1260L2340 1260L2316 1284L2292 1284L2268 1308L2244 1308L2220 1308L2196 1308L2172 1332L2148 1332L2124 1332L2100 1332L2076 1332L2052 1332L2028 1332L2004 1332L1980 1332L1956 1332L1932 1332L1908 1332L1884 1332L1860 1356L1836 1356L1812 1356L1788 1356L1764 1356L1740 1356L1716 1356L1692 1356L1668 1380L1644 1380L1620 1404L1596 1404L1572 1404L1548 1404L1524 1404L1500 1404L1476 1428L1452 1428" stroke="rgba(222, 200, 237, 1)" stroke-width="4"></path><path d="M1446 1428 a6 6 0 1 0 12 0 a6 6 0 1 0 -12 0zM1470 1452 a6 6 0 1 0 12 0 a6 6 0 1 0 -12 0zM1926 1356 a6 6 0 1 0 12 0 a6 6 0 1 0 -12 0zM1374 1500 a6 6 0 1 0 12 0 a6 6 0 1 0 -12 0zM2262 1332 a6 6 0 1 0 12 0 a6 6 0 1 0 -12 0zM1470 1404 a6 6 0 1 0 12 0 a6 6 0 1 0 -12 0zM1734 1404 a6 6 0 1 0 12 0 a6 6 0 1 0 -12 0zM1926 1380 a6 6 0 1 0 12 0 a6 6 0 1 0 -12 0zM2166 1308 a6 6 0 1 0 12 0 a6 6 0 1 0 -12 0zM1926 1404 a6 6 0 1 0 12 0 a6 6 0 1 0 -12 0zM1998 1404 a6 6 0 1 0 12 0 a6 6 0 1 0 -12 0zM1806 1404 a6 6 0 1 0 12 0 a6 6 0 1 0 -12 0zM2070 1308 a6 6 0 1 0 12 0 a6 6 0 1 0 -12 0z" fill="rgba(222, 200, 237, 1)"></path><path d="M1476 300L1452 276L1428 276L1404 276L1380 276L1356 276L1332 276L1308 276L1284 276L1260 276L1236 276L1212 276L1188 276L1164 276L1140 276L1116 252L1092 252L1068 252L1044 252L1020 252L996 252L972 228L948 228L924 228M1164 324L1140 300L1116 300L1092 300M2460 396L2436 396L2412 396M972 300L948 276L924 276L900 276L876 300L852 300L828 300L804 300L780 300L756 300L732 300L708 300L684 300L660 300L636 300L612 300M1548 300L1524 276M492 324L468 300L444 300L420 276L396 276L372 276L348 300L324 300L300 300L276 300L252 300L228 300L204 300L180 300L156 300L132 300L108 300L84 300L60 300M1692 324L1668 300L1644 276L1620 276L1596 276L1572 276L1548 276L1524 252L1500 252L1476 252L1452 252L1428 252L1404 252L1380 252L1356 252L1332 252L1308 252L1284 252L1260 252L1236 252L1212 252L1188 252L1164 252L1140 252L1116 228L1092 228L1068 228L1044 228L1020 228L996 228L972 204L948 204M516 324L492 300L468 276L444 276L420 252L396 228L372 228L348 228L324 228L300 228L276 228L252 228L228 228L204 228M2268 372L2244 348L2220 348M1500 300L1476 276M1884 324L1860 300L1836 300L1812 300L1788 300L1764 300L1740 300L1716 300L1692 300L1668 276L1644 252L1620 252L1596 228M2436 372L2412 348L2388 348L2364 348L2340 348M396 324L372 300M372 324L348 348M1932 324L1908 300L1884 300L1860 276L1836 276L1812 276L1788 276L1764 276L1740 276L1716 276L1692 276L1668 252L1644 228L1620 228L1596 204L1572 204M2004 324L1980 300L1956 300L1932 276L1908 276M2556 420L2532 420M540 324L516 300L492 276L468 252L444 252L420 228L396 204L372 180M2148 348L2124 324L2100 324M588 324L564 300L540 300L516 276L492 252M420 324L396 300M2484 396L2460 372M324 324L300 348L276 348L252 348M2292 372L2268 348L2244 324L2220 324L2196 324L2172 324L2148 324M2076 348L2052 324L2028 300L2004 276L1980 276L1956 276L1932 252L1908 252L1884 252L1860 252L1836 252L1812 252M1020 324L996 324L972 324M2580 420L2556 420L2532 396L2508 396L2484 396L2460 396L2436 372L2412 372L2388 372L2364 372L2340 372L2316 372L2292 372L2268 372L2244 372L2220 372L2196 372L2172 372L2148 348L2124 348L2100 348L2076 348L2052 348L2028 324L2004 324L1980 324L1956 324L1932 324L1908 324L1884 324L1860 324L1836 324L1812 324L1788 324L1764 324L1740 324L1716 324L1692 324L1668 324L1644 300L1620 300L1596 300L1572 300L1548 300L1524 300L1500 300L1476 300L1452 300L1428 300L1404 300L1380 300L1356 300L1332 300L1308 300L1284 300L1260 300L1236 300L1212 300L1188 300L1164 324L1140 324L1116 324L1092 324L1068 324L1044 324L1020 324L996 300L972 300L948 300L924 300L900 300L876 324L852 324L828 324L804 324L780 324L756 324L732 348L708 348L684 324L660 324L636 324L612 324L588 324L564 324L540 324L516 324L492 324L468 324L444 324L420 324L396 324L372 324L348 324L324 324L300 324L276 324L252 324L228 324L204 324L180 324L156 324L132 324L108 324" stroke="rgba(137, 248, 206, 1)" stroke-width="4"></path><path d="M102 324 a6 6 0 1 0 12 0 a6 6 0 1 0 -12 0zM918 228 a6 6 0 1 0 12 0 a6 6 0 1 0 -12 0zM1086 300 a6 6 0 1 0 12 0 a6 6 0 1 0 -12 0zM2406 396 a6 6 0 1 0 12 0 a6 6 0 1 0 -12 0zM606 300 a6 6 0 1 0 12 0 a6 6 0 1 0 -12 0zM1518 276 a6 6 0 1 0 12 0 a6 6 0 1 0 -12 0zM54 300 a6 6 0 1 0 12 0 a6 6 0 1 0 -12 0zM942 204 a6 6 0 1 0 12 0 a6 6 0 1 0 -12 0zM198 228 a6 6 0 1 0 12 0 a6 6 0 1 0 -12 0zM2214 348 a6 6 0 1 0 12 0 a6 6 0 1 0 -12 0zM1470 276 a6 6 0 1 0 12 0 a6 6 0 1 0 -12 0zM1590 228 a6 6 0 1 0 12 0 a6 6 0 1 0 -12 0zM2334 348 a6 6 0 1 0 12 0 a6 6 0 1 0 -12 0zM366 300 a6 6 0 1 0 12 0 a6 6 0 1 0 -12 0zM342 348 a6 6 0 1 0 12 0 a6 6 0 1 0 -12 0zM1566 204 a6 6 0 1 0 12 0 a6 6 0 1 0 -12 0zM1902 276 a6 6 0 1 0 12 0 a6 6 0 1 0 -12 0zM2526 420 a6 6 0 1 0 12 0 a6 6 0 1 0 -12 0zM366 180 a6 6 0 1 0 12 0 a6 6 0 1 0 -12 0zM2094 324 a6 6 0 1 0 12 0 a6 6 0 1 0 -12 0zM486 252 a6 6 0 1 0 12 0 a6 6 0 1 0 -12 0zM390 300 a6 6 0 1 0 12 0 a6 6 0 1 0 -12 0zM2454 372 a6 6 0 1 0 12 0 a6 6 0 1 0 -12 0zM246 348 a6 6 0 1 0 12 0 a6 6 0 1 0 -12 0zM2142 324 a6 6 0 1 0 12 0 a6 6 0 1 0 -12 0zM1806 252 a6 6 0 1 0 12 0 a6 6 0 1 0 -12 0zM966 324 a6 6 0 1 0 12 0 a6 6 0 1 0 -12 0z" fill="rgba(137, 248, 206, 1)"></path></g></g><defs><mask id="SvgjsMask1282"><rect width="2560" height="1600" fill="#ffffff"></rect></mask><mask id="SvgjsMask1283"><rect width="2560" height="1600" fill="white"></rect><path d="M105 876 a3 3 0 1 0 6 0 a3 3 0 1 0 -6 0zM57 876 a3 3 0 1 0 6 0 a3 3 0 1 0 -6 0zM921 924 a3 3 0 1 0 6 0 a3 3 0 1 0 -6 0zM921 876 a3 3 0 1 0 6 0 a3 3 0 1 0 -6 0zM1017 924 a3 3 0 1 0 6 0 a3 3 0 1 0 -6 0zM153 900 a3 3 0 1 0 6 0 a3 3 0 1 0 -6 0zM1761 852 a3 3 0 1 0 6 0 a3 3 0 1 0 -6 0zM489 924 a3 3 0 1 0 6 0 a3 3 0 1 0 -6 0zM1353 876 a3 3 0 1 0 6 0 a3 3 0 1 0 -6 0zM609 948 a3 3 0 1 0 6 0 a3 3 0 1 0 -6 0zM2265 756 a3 3 0 1 0 6 0 a3 3 0 1 0 -6 0zM1953 756 a3 3 0 1 0 6 0 a3 3 0 1 0 -6 0zM1617 876 a3 3 0 1 0 6 0 a3 3 0 1 0 -6 0zM1209 876 a3 3 0 1 0 6 0 a3 3 0 1 0 -6 0zM1089 876 a3 3 0 1 0 6 0 a3 3 0 1 0 -6 0zM1497 852 a3 3 0 1 0 6 0 a3 3 0 1 0 -6 0zM1497 876 a3 3 0 1 0 6 0 a3 3 0 1 0 -6 0zM1305 828 a3 3 0 1 0 6 0 a3 3 0 1 0 -6 0zM321 924 a3 3 0 1 0 6 0 a3 3 0 1 0 -6 0zM561 876 a3 3 0 1 0 6 0 a3 3 0 1 0 -6 0zM1209 924 a3 3 0 1 0 6 0 a3 3 0 1 0 -6 0zM1641 852 a3 3 0 1 0 6 0 a3 3 0 1 0 -6 0zM2025 804 a3 3 0 1 0 6 0 a3 3 0 1 0 -6 0zM1881 876 a3 3 0 1 0 6 0 a3 3 0 1 0 -6 0zM321 900 a3 3 0 1 0 6 0 a3 3 0 1 0 -6 0zM729 924 a3 3 0 1 0 6 0 a3 3 0 1 0 -6 0zM465 876 a3 3 0 1 0 6 0 a3 3 0 1 0 -6 0z" fill="black"></path><path d="M825 780 a3 3 0 1 0 6 0 a3 3 0 1 0 -6 0zM2409 756 a3 3 0 1 0 6 0 a3 3 0 1 0 -6 0zM1377 756 a3 3 0 1 0 6 0 a3 3 0 1 0 -6 0zM153 780 a3 3 0 1 0 6 0 a3 3 0 1 0 -6 0zM297 732 a3 3 0 1 0 6 0 a3 3 0 1 0 -6 0zM609 852 a3 3 0 1 0 6 0 a3 3 0 1 0 -6 0zM1257 684 a3 3 0 1 0 6 0 a3 3 0 1 0 -6 0zM1041 684 a3 3 0 1 0 6 0 a3 3 0 1 0 -6 0zM2169 756 a3 3 0 1 0 6 0 a3 3 0 1 0 -6 0zM1113 636 a3 3 0 1 0 6 0 a3 3 0 1 0 -6 0zM1113 756 a3 3 0 1 0 6 0 a3 3 0 1 0 -6 0zM1257 780 a3 3 0 1 0 6 0 a3 3 0 1 0 -6 0zM1833 684 a3 3 0 1 0 6 0 a3 3 0 1 0 -6 0zM537 708 a3 3 0 1 0 6 0 a3 3 0 1 0 -6 0zM2073 684 a3 3 0 1 0 6 0 a3 3 0 1 0 -6 0zM1161 780 a3 3 0 1 0 6 0 a3 3 0 1 0 -6 0zM2193 756 a3 3 0 1 0 6 0 a3 3 0 1 0 -6 0zM2001 756 a3 3 0 1 0 6 0 a3 3 0 1 0 -6 0zM849 852 a3 3 0 1 0 6 0 a3 3 0 1 0 -6 0z" fill="black"></path><path d="M945 996 a3 3 0 1 0 6 0 a3 3 0 1 0 -6 0zM729 972 a3 3 0 1 0 6 0 a3 3 0 1 0 -6 0zM993 972 a3 3 0 1 0 6 0 a3 3 0 1 0 -6 0zM1377 924 a3 3 0 1 0 6 0 a3 3 0 1 0 -6 0zM1161 972 a3 3 0 1 0 6 0 a3 3 0 1 0 -6 0zM2193 852 a3 3 0 1 0 6 0 a3 3 0 1 0 -6 0zM2265 852 a3 3 0 1 0 6 0 a3 3 0 1 0 -6 0zM1353 948 a3 3 0 1 0 6 0 a3 3 0 1 0 -6 0zM2169 828 a3 3 0 1 0 6 0 a3 3 0 1 0 -6 0zM1209 972 a3 3 0 1 0 6 0 a3 3 0 1 0 -6 0zM1257 972 a3 3 0 1 0 6 0 a3 3 0 1 0 -6 0zM2289 852 a3 3 0 1 0 6 0 a3 3 0 1 0 -6 0z" fill="black"></path><path d="M57 1020 a3 3 0 1 0 6 0 a3 3 0 1 0 -6 0zM489 1020 a3 3 0 1 0 6 0 a3 3 0 1 0 -6 0zM561 1044 a3 3 0 1 0 6 0 a3 3 0 1 0 -6 0zM249 1020 a3 3 0 1 0 6 0 a3 3 0 1 0 -6 0zM945 1044 a3 3 0 1 0 6 0 a3 3 0 1 0 -6 0zM2145 900 a3 3 0 1 0 6 0 a3 3 0 1 0 -6 0zM729 1020 a3 3 0 1 0 6 0 a3 3 0 1 0 -6 0zM1473 972 a3 3 0 1 0 6 0 a3 3 0 1 0 -6 0zM825 996 a3 3 0 1 0 6 0 a3 3 0 1 0 -6 0zM57 948 a3 3 0 1 0 6 0 a3 3 0 1 0 -6 0zM1521 972 a3 3 0 1 0 6 0 a3 3 0 1 0 -6 0zM345 972 a3 3 0 1 0 6 0 a3 3 0 1 0 -6 0zM2241 900 a3 3 0 1 0 6 0 a3 3 0 1 0 -6 0zM369 1020 a3 3 0 1 0 6 0 a3 3 0 1 0 -6 0zM1569 972 a3 3 0 1 0 6 0 a3 3 0 1 0 -6 0zM2313 852 a3 3 0 1 0 6 0 a3 3 0 1 0 -6 0zM489 972 a3 3 0 1 0 6 0 a3 3 0 1 0 -6 0zM225 1044 a3 3 0 1 0 6 0 a3 3 0 1 0 -6 0zM129 972 a3 3 0 1 0 6 0 a3 3 0 1 0 -6 0zM1593 972 a3 3 0 1 0 6 0 a3 3 0 1 0 -6 0zM57 1044 a3 3 0 1 0 6 0 a3 3 0 1 0 -6 0zM873 996 a3 3 0 1 0 6 0 a3 3 0 1 0 -6 0zM129 1044 a3 3 0 1 0 6 0 a3 3 0 1 0 -6 0zM57 1068 a3 3 0 1 0 6 0 a3 3 0 1 0 -6 0zM57 996 a3 3 0 1 0 6 0 a3 3 0 1 0 -6 0zM1737 972 a3 3 0 1 0 6 0 a3 3 0 1 0 -6 0zM129 996 a3 3 0 1 0 6 0 a3 3 0 1 0 -6 0z" fill="black"></path><path d="M1497 660 a3 3 0 1 0 6 0 a3 3 0 1 0 -6 0zM2169 708 a3 3 0 1 0 6 0 a3 3 0 1 0 -6 0zM1473 684 a3 3 0 1 0 6 0 a3 3 0 1 0 -6 0zM1953 636 a3 3 0 1 0 6 0 a3 3 0 1 0 -6 0zM1593 684 a3 3 0 1 0 6 0 a3 3 0 1 0 -6 0zM2097 684 a3 3 0 1 0 6 0 a3 3 0 1 0 -6 0zM1809 660 a3 3 0 1 0 6 0 a3 3 0 1 0 -6 0zM2265 684 a3 3 0 1 0 6 0 a3 3 0 1 0 -6 0zM1833 636 a3 3 0 1 0 6 0 a3 3 0 1 0 -6 0zM2145 684 a3 3 0 1 0 6 0 a3 3 0 1 0 -6 0zM1689 660 a3 3 0 1 0 6 0 a3 3 0 1 0 -6 0zM1617 660 a3 3 0 1 0 6 0 a3 3 0 1 0 -6 0z" fill="black"></path><path d="M2289 900 a3 3 0 1 0 6 0 a3 3 0 1 0 -6 0z" fill="black"></path><path d="M1161 588 a3 3 0 1 0 6 0 a3 3 0 1 0 -6 0zM2241 660 a3 3 0 1 0 6 0 a3 3 0 1 0 -6 0zM1713 612 a3 3 0 1 0 6 0 a3 3 0 1 0 -6 0zM1329 636 a3 3 0 1 0 6 0 a3 3 0 1 0 -6 0zM1593 612 a3 3 0 1 0 6 0 a3 3 0 1 0 -6 0zM2001 612 a3 3 0 1 0 6 0 a3 3 0 1 0 -6 0zM1089 612 a3 3 0 1 0 6 0 a3 3 0 1 0 -6 0zM1497 636 a3 3 0 1 0 6 0 a3 3 0 1 0 -6 0zM1977 636 a3 3 0 1 0 6 0 a3 3 0 1 0 -6 0zM1257 612 a3 3 0 1 0 6 0 a3 3 0 1 0 -6 0zM1521 636 a3 3 0 1 0 6 0 a3 3 0 1 0 -6 0zM1329 612 a3 3 0 1 0 6 0 a3 3 0 1 0 -6 0zM1377 660 a3 3 0 1 0 6 0 a3 3 0 1 0 -6 0zM1545 612 a3 3 0 1 0 6 0 a3 3 0 1 0 -6 0zM1761 660 a3 3 0 1 0 6 0 a3 3 0 1 0 -6 0zM1665 612 a3 3 0 1 0 6 0 a3 3 0 1 0 -6 0z" fill="black"></path><path d="M1281 1020 a3 3 0 1 0 6 0 a3 3 0 1 0 -6 0zM2265 948 a3 3 0 1 0 6 0 a3 3 0 1 0 -6 0zM1497 1020 a3 3 0 1 0 6 0 a3 3 0 1 0 -6 0zM1161 1068 a3 3 0 1 0 6 0 a3 3 0 1 0 -6 0zM1713 1020 a3 3 0 1 0 6 0 a3 3 0 1 0 -6 0zM1785 972 a3 3 0 1 0 6 0 a3 3 0 1 0 -6 0zM1257 1068 a3 3 0 1 0 6 0 a3 3 0 1 0 -6 0zM1425 1044 a3 3 0 1 0 6 0 a3 3 0 1 0 -6 0zM1953 948 a3 3 0 1 0 6 0 a3 3 0 1 0 -6 0zM2433 924 a3 3 0 1 0 6 0 a3 3 0 1 0 -6 0zM1881 1020 a3 3 0 1 0 6 0 a3 3 0 1 0 -6 0zM1617 972 a3 3 0 1 0 6 0 a3 3 0 1 0 -6 0zM1617 1020 a3 3 0 1 0 6 0 a3 3 0 1 0 -6 0zM2001 972 a3 3 0 1 0 6 0 a3 3 0 1 0 -6 0z" fill="black"></path><path d="M2097 612 a3 3 0 1 0 6 0 a3 3 0 1 0 -6 0zM2385 636 a3 3 0 1 0 6 0 a3 3 0 1 0 -6 0zM2409 636 a3 3 0 1 0 6 0 a3 3 0 1 0 -6 0z" fill="black"></path><path d="M2409 972 a3 3 0 1 0 6 0 a3 3 0 1 0 -6 0zM2529 924 a3 3 0 1 0 6 0 a3 3 0 1 0 -6 0z" fill="black"></path><path d="M825 540 a3 3 0 1 0 6 0 a3 3 0 1 0 -6 0zM1161 564 a3 3 0 1 0 6 0 a3 3 0 1 0 -6 0zM633 564 a3 3 0 1 0 6 0 a3 3 0 1 0 -6 0zM1809 564 a3 3 0 1 0 6 0 a3 3 0 1 0 -6 0zM2313 588 a3 3 0 1 0 6 0 a3 3 0 1 0 -6 0zM1161 492 a3 3 0 1 0 6 0 a3 3 0 1 0 -6 0zM945 516 a3 3 0 1 0 6 0 a3 3 0 1 0 -6 0zM1305 516 a3 3 0 1 0 6 0 a3 3 0 1 0 -6 0zM873 492 a3 3 0 1 0 6 0 a3 3 0 1 0 -6 0zM1761 612 a3 3 0 1 0 6 0 a3 3 0 1 0 -6 0zM1785 612 a3 3 0 1 0 6 0 a3 3 0 1 0 -6 0zM801 588 a3 3 0 1 0 6 0 a3 3 0 1 0 -6 0zM1833 564 a3 3 0 1 0 6 0 a3 3 0 1 0 -6 0zM1065 492 a3 3 0 1 0 6 0 a3 3 0 1 0 -6 0zM2433 636 a3 3 0 1 0 6 0 a3 3 0 1 0 -6 0zM969 516 a3 3 0 1 0 6 0 a3 3 0 1 0 -6 0zM1929 564 a3 3 0 1 0 6 0 a3 3 0 1 0 -6 0zM1977 564 a3 3 0 1 0 6 0 a3 3 0 1 0 -6 0zM1041 588 a3 3 0 1 0 6 0 a3 3 0 1 0 -6 0z" fill="black"></path><path d="M2433 588 a3 3 0 1 0 6 0 a3 3 0 1 0 -6 0z" fill="black"></path><path d="M489 1068 a3 3 0 1 0 6 0 a3 3 0 1 0 -6 0zM585 1140 a3 3 0 1 0 6 0 a3 3 0 1 0 -6 0zM1569 1044 a3 3 0 1 0 6 0 a3 3 0 1 0 -6 0zM1305 1116 a3 3 0 1 0 6 0 a3 3 0 1 0 -6 0zM873 1092 a3 3 0 1 0 6 0 a3 3 0 1 0 -6 0zM2073 996 a3 3 0 1 0 6 0 a3 3 0 1 0 -6 0zM465 1044 a3 3 0 1 0 6 0 a3 3 0 1 0 -6 0zM897 1092 a3 3 0 1 0 6 0 a3 3 0 1 0 -6 0zM1329 1068 a3 3 0 1 0 6 0 a3 3 0 1 0 -6 0zM513 1044 a3 3 0 1 0 6 0 a3 3 0 1 0 -6 0zM969 1068 a3 3 0 1 0 6 0 a3 3 0 1 0 -6 0zM441 1092 a3 3 0 1 0 6 0 a3 3 0 1 0 -6 0zM1329 1116 a3 3 0 1 0 6 0 a3 3 0 1 0 -6 0zM1041 1116 a3 3 0 1 0 6 0 a3 3 0 1 0 -6 0zM2385 1020 a3 3 0 1 0 6 0 a3 3 0 1 0 -6 0zM1641 1020 a3 3 0 1 0 6 0 a3 3 0 1 0 -6 0zM1425 1116 a3 3 0 1 0 6 0 a3 3 0 1 0 -6 0zM1545 1092 a3 3 0 1 0 6 0 a3 3 0 1 0 -6 0zM2145 996 a3 3 0 1 0 6 0 a3 3 0 1 0 -6 0zM273 1116 a3 3 0 1 0 6 0 a3 3 0 1 0 -6 0zM2001 1020 a3 3 0 1 0 6 0 a3 3 0 1 0 -6 0zM2289 972 a3 3 0 1 0 6 0 a3 3 0 1 0 -6 0zM1473 1068 a3 3 0 1 0 6 0 a3 3 0 1 0 -6 0z" fill="black"></path><path d="M1473 540 a3 3 0 1 0 6 0 a3 3 0 1 0 -6 0zM2385 540 a3 3 0 1 0 6 0 a3 3 0 1 0 -6 0zM1641 540 a3 3 0 1 0 6 0 a3 3 0 1 0 -6 0zM1737 540 a3 3 0 1 0 6 0 a3 3 0 1 0 -6 0zM2457 564 a3 3 0 1 0 6 0 a3 3 0 1 0 -6 0zM2265 540 a3 3 0 1 0 6 0 a3 3 0 1 0 -6 0zM1449 516 a3 3 0 1 0 6 0 a3 3 0 1 0 -6 0zM2001 564 a3 3 0 1 0 6 0 a3 3 0 1 0 -6 0zM2217 540 a3 3 0 1 0 6 0 a3 3 0 1 0 -6 0zM2337 540 a3 3 0 1 0 6 0 a3 3 0 1 0 -6 0zM1569 564 a3 3 0 1 0 6 0 a3 3 0 1 0 -6 0zM1545 516 a3 3 0 1 0 6 0 a3 3 0 1 0 -6 0z" fill="black"></path><path d="M465 1212 a3 3 0 1 0 6 0 a3 3 0 1 0 -6 0zM57 1260 a3 3 0 1 0 6 0 a3 3 0 1 0 -6 0zM825 1140 a3 3 0 1 0 6 0 a3 3 0 1 0 -6 0zM2265 1020 a3 3 0 1 0 6 0 a3 3 0 1 0 -6 0zM2289 1020 a3 3 0 1 0 6 0 a3 3 0 1 0 -6 0zM1785 1092 a3 3 0 1 0 6 0 a3 3 0 1 0 -6 0zM57 1188 a3 3 0 1 0 6 0 a3 3 0 1 0 -6 0zM2169 1068 a3 3 0 1 0 6 0 a3 3 0 1 0 -6 0zM801 1164 a3 3 0 1 0 6 0 a3 3 0 1 0 -6 0zM1953 1092 a3 3 0 1 0 6 0 a3 3 0 1 0 -6 0zM345 1260 a3 3 0 1 0 6 0 a3 3 0 1 0 -6 0zM1977 1092 a3 3 0 1 0 6 0 a3 3 0 1 0 -6 0zM489 1164 a3 3 0 1 0 6 0 a3 3 0 1 0 -6 0zM2025 1092 a3 3 0 1 0 6 0 a3 3 0 1 0 -6 0zM561 1188 a3 3 0 1 0 6 0 a3 3 0 1 0 -6 0zM585 1284 a3 3 0 1 0 6 0 a3 3 0 1 0 -6 0zM2121 1044 a3 3 0 1 0 6 0 a3 3 0 1 0 -6 0zM2073 1068 a3 3 0 1 0 6 0 a3 3 0 1 0 -6 0zM897 1164 a3 3 0 1 0 6 0 a3 3 0 1 0 -6 0zM1161 1116 a3 3 0 1 0 6 0 a3 3 0 1 0 -6 0zM2145 1044 a3 3 0 1 0 6 0 a3 3 0 1 0 -6 0zM1065 1140 a3 3 0 1 0 6 0 a3 3 0 1 0 -6 0zM1209 1116 a3 3 0 1 0 6 0 a3 3 0 1 0 -6 0z" fill="black"></path><path d="M2433 540 a3 3 0 1 0 6 0 a3 3 0 1 0 -6 0zM2481 564 a3 3 0 1 0 6 0 a3 3 0 1 0 -6 0z" fill="black"></path><path d="M1281 1188 a3 3 0 1 0 6 0 a3 3 0 1 0 -6 0zM1353 1164 a3 3 0 1 0 6 0 a3 3 0 1 0 -6 0zM1569 1164 a3 3 0 1 0 6 0 a3 3 0 1 0 -6 0zM1377 1164 a3 3 0 1 0 6 0 a3 3 0 1 0 -6 0zM1665 1164 a3 3 0 1 0 6 0 a3 3 0 1 0 -6 0zM1881 1140 a3 3 0 1 0 6 0 a3 3 0 1 0 -6 0zM2121 1140 a3 3 0 1 0 6 0 a3 3 0 1 0 -6 0zM2169 1140 a3 3 0 1 0 6 0 a3 3 0 1 0 -6 0zM1881 1164 a3 3 0 1 0 6 0 a3 3 0 1 0 -6 0zM1401 1164 a3 3 0 1 0 6 0 a3 3 0 1 0 -6 0zM1785 1164 a3 3 0 1 0 6 0 a3 3 0 1 0 -6 0zM2265 1092 a3 3 0 1 0 6 0 a3 3 0 1 0 -6 0zM1593 1164 a3 3 0 1 0 6 0 a3 3 0 1 0 -6 0zM1521 1164 a3 3 0 1 0 6 0 a3 3 0 1 0 -6 0z" fill="black"></path><path d="M321 468 a3 3 0 1 0 6 0 a3 3 0 1 0 -6 0zM1425 468 a3 3 0 1 0 6 0 a3 3 0 1 0 -6 0zM297 492 a3 3 0 1 0 6 0 a3 3 0 1 0 -6 0zM561 468 a3 3 0 1 0 6 0 a3 3 0 1 0 -6 0zM1569 516 a3 3 0 1 0 6 0 a3 3 0 1 0 -6 0zM1089 492 a3 3 0 1 0 6 0 a3 3 0 1 0 -6 0zM1281 492 a3 3 0 1 0 6 0 a3 3 0 1 0 -6 0zM1209 444 a3 3 0 1 0 6 0 a3 3 0 1 0 -6 0zM2025 516 a3 3 0 1 0 6 0 a3 3 0 1 0 -6 0zM2505 540 a3 3 0 1 0 6 0 a3 3 0 1 0 -6 0zM1641 516 a3 3 0 1 0 6 0 a3 3 0 1 0 -6 0zM2049 492 a3 3 0 1 0 6 0 a3 3 0 1 0 -6 0zM633 492 a3 3 0 1 0 6 0 a3 3 0 1 0 -6 0zM321 444 a3 3 0 1 0 6 0 a3 3 0 1 0 -6 0zM729 444 a3 3 0 1 0 6 0 a3 3 0 1 0 -6 0zM1497 468 a3 3 0 1 0 6 0 a3 3 0 1 0 -6 0zM297 420 a3 3 0 1 0 6 0 a3 3 0 1 0 -6 0zM801 444 a3 3 0 1 0 6 0 a3 3 0 1 0 -6 0zM825 444 a3 3 0 1 0 6 0 a3 3 0 1 0 -6 0zM1257 444 a3 3 0 1 0 6 0 a3 3 0 1 0 -6 0zM2169 516 a3 3 0 1 0 6 0 a3 3 0 1 0 -6 0zM1353 516 a3 3 0 1 0 6 0 a3 3 0 1 0 -6 0zM1377 540 a3 3 0 1 0 6 0 a3 3 0 1 0 -6 0zM1305 444 a3 3 0 1 0 6 0 a3 3 0 1 0 -6 0z" fill="black"></path><path d="M1065 1212 a3 3 0 1 0 6 0 a3 3 0 1 0 -6 0zM1449 1212 a3 3 0 1 0 6 0 a3 3 0 1 0 -6 0zM2193 1140 a3 3 0 1 0 6 0 a3 3 0 1 0 -6 0zM1257 1236 a3 3 0 1 0 6 0 a3 3 0 1 0 -6 0zM1281 1236 a3 3 0 1 0 6 0 a3 3 0 1 0 -6 0zM1473 1236 a3 3 0 1 0 6 0 a3 3 0 1 0 -6 0zM1497 1236 a3 3 0 1 0 6 0 a3 3 0 1 0 -6 0zM2025 1140 a3 3 0 1 0 6 0 a3 3 0 1 0 -6 0zM2001 1164 a3 3 0 1 0 6 0 a3 3 0 1 0 -6 0zM1137 1212 a3 3 0 1 0 6 0 a3 3 0 1 0 -6 0zM2217 1140 a3 3 0 1 0 6 0 a3 3 0 1 0 -6 0zM633 1308 a3 3 0 1 0 6 0 a3 3 0 1 0 -6 0zM1809 1164 a3 3 0 1 0 6 0 a3 3 0 1 0 -6 0zM1065 1236 a3 3 0 1 0 6 0 a3 3 0 1 0 -6 0zM2313 1116 a3 3 0 1 0 6 0 a3 3 0 1 0 -6 0zM1137 1188 a3 3 0 1 0 6 0 a3 3 0 1 0 -6 0z" fill="black"></path><path d="M1545 468 a3 3 0 1 0 6 0 a3 3 0 1 0 -6 0zM1545 444 a3 3 0 1 0 6 0 a3 3 0 1 0 -6 0zM2097 492 a3 3 0 1 0 6 0 a3 3 0 1 0 -6 0zM1569 444 a3 3 0 1 0 6 0 a3 3 0 1 0 -6 0zM1929 444 a3 3 0 1 0 6 0 a3 3 0 1 0 -6 0zM1881 468 a3 3 0 1 0 6 0 a3 3 0 1 0 -6 0zM1761 468 a3 3 0 1 0 6 0 a3 3 0 1 0 -6 0zM2169 444 a3 3 0 1 0 6 0 a3 3 0 1 0 -6 0zM1761 444 a3 3 0 1 0 6 0 a3 3 0 1 0 -6 0zM1977 468 a3 3 0 1 0 6 0 a3 3 0 1 0 -6 0zM2217 444 a3 3 0 1 0 6 0 a3 3 0 1 0 -6 0zM2001 468 a3 3 0 1 0 6 0 a3 3 0 1 0 -6 0z" fill="black"></path><path d="M1137 1284 a3 3 0 1 0 6 0 a3 3 0 1 0 -6 0zM1569 1260 a3 3 0 1 0 6 0 a3 3 0 1 0 -6 0zM993 1332 a3 3 0 1 0 6 0 a3 3 0 1 0 -6 0zM2145 1212 a3 3 0 1 0 6 0 a3 3 0 1 0 -6 0zM2025 1212 a3 3 0 1 0 6 0 a3 3 0 1 0 -6 0zM1353 1260 a3 3 0 1 0 6 0 a3 3 0 1 0 -6 0zM1209 1284 a3 3 0 1 0 6 0 a3 3 0 1 0 -6 0zM2073 1212 a3 3 0 1 0 6 0 a3 3 0 1 0 -6 0zM2337 1140 a3 3 0 1 0 6 0 a3 3 0 1 0 -6 0zM1017 1356 a3 3 0 1 0 6 0 a3 3 0 1 0 -6 0zM2361 1140 a3 3 0 1 0 6 0 a3 3 0 1 0 -6 0zM1425 1260 a3 3 0 1 0 6 0 a3 3 0 1 0 -6 0zM2265 1188 a3 3 0 1 0 6 0 a3 3 0 1 0 -6 0zM2097 1212 a3 3 0 1 0 6 0 a3 3 0 1 0 -6 0zM1521 1236 a3 3 0 1 0 6 0 a3 3 0 1 0 -6 0zM1329 1308 a3 3 0 1 0 6 0 a3 3 0 1 0 -6 0z" fill="black"></path><path d="M2313 444 a3 3 0 1 0 6 0 a3 3 0 1 0 -6 0zM2289 468 a3 3 0 1 0 6 0 a3 3 0 1 0 -6 0z" fill="black"></path><path d="M1545 1260 a3 3 0 1 0 6 0 a3 3 0 1 0 -6 0zM1881 1236 a3 3 0 1 0 6 0 a3 3 0 1 0 -6 0zM2217 1236 a3 3 0 1 0 6 0 a3 3 0 1 0 -6 0zM1641 1260 a3 3 0 1 0 6 0 a3 3 0 1 0 -6 0zM1353 1332 a3 3 0 1 0 6 0 a3 3 0 1 0 -6 0zM1713 1260 a3 3 0 1 0 6 0 a3 3 0 1 0 -6 0zM1737 1260 a3 3 0 1 0 6 0 a3 3 0 1 0 -6 0zM1761 1260 a3 3 0 1 0 6 0 a3 3 0 1 0 -6 0zM2193 1212 a3 3 0 1 0 6 0 a3 3 0 1 0 -6 0zM2289 1188 a3 3 0 1 0 6 0 a3 3 0 1 0 -6 0zM1497 1332 a3 3 0 1 0 6 0 a3 3 0 1 0 -6 0zM1905 1236 a3 3 0 1 0 6 0 a3 3 0 1 0 -6 0z" fill="black"></path><path d="M585 396 a3 3 0 1 0 6 0 a3 3 0 1 0 -6 0zM657 396 a3 3 0 1 0 6 0 a3 3 0 1 0 -6 0zM921 420 a3 3 0 1 0 6 0 a3 3 0 1 0 -6 0zM1257 396 a3 3 0 1 0 6 0 a3 3 0 1 0 -6 0zM1641 420 a3 3 0 1 0 6 0 a3 3 0 1 0 -6 0zM1569 372 a3 3 0 1 0 6 0 a3 3 0 1 0 -6 0zM2073 396 a3 3 0 1 0 6 0 a3 3 0 1 0 -6 0zM1665 420 a3 3 0 1 0 6 0 a3 3 0 1 0 -6 0zM1329 444 a3 3 0 1 0 6 0 a3 3 0 1 0 -6 0zM1785 444 a3 3 0 1 0 6 0 a3 3 0 1 0 -6 0zM2097 396 a3 3 0 1 0 6 0 a3 3 0 1 0 -6 0zM1449 444 a3 3 0 1 0 6 0 a3 3 0 1 0 -6 0zM1521 396 a3 3 0 1 0 6 0 a3 3 0 1 0 -6 0zM1017 396 a3 3 0 1 0 6 0 a3 3 0 1 0 -6 0zM513 420 a3 3 0 1 0 6 0 a3 3 0 1 0 -6 0zM585 372 a3 3 0 1 0 6 0 a3 3 0 1 0 -6 0zM1497 372 a3 3 0 1 0 6 0 a3 3 0 1 0 -6 0zM1161 420 a3 3 0 1 0 6 0 a3 3 0 1 0 -6 0zM1329 396 a3 3 0 1 0 6 0 a3 3 0 1 0 -6 0zM1977 420 a3 3 0 1 0 6 0 a3 3 0 1 0 -6 0zM897 444 a3 3 0 1 0 6 0 a3 3 0 1 0 -6 0zM2265 444 a3 3 0 1 0 6 0 a3 3 0 1 0 -6 0z" fill="black"></path><path d="M1281 1356 a3 3 0 1 0 6 0 a3 3 0 1 0 -6 0zM1521 1332 a3 3 0 1 0 6 0 a3 3 0 1 0 -6 0zM2481 1116 a3 3 0 1 0 6 0 a3 3 0 1 0 -6 0zM2265 1236 a3 3 0 1 0 6 0 a3 3 0 1 0 -6 0zM1617 1308 a3 3 0 1 0 6 0 a3 3 0 1 0 -6 0zM1593 1332 a3 3 0 1 0 6 0 a3 3 0 1 0 -6 0zM1665 1308 a3 3 0 1 0 6 0 a3 3 0 1 0 -6 0zM1281 1332 a3 3 0 1 0 6 0 a3 3 0 1 0 -6 0z" fill="black"></path><path d="M129 396 a3 3 0 1 0 6 0 a3 3 0 1 0 -6 0zM753 348 a3 3 0 1 0 6 0 a3 3 0 1 0 -6 0zM57 372 a3 3 0 1 0 6 0 a3 3 0 1 0 -6 0zM1185 324 a3 3 0 1 0 6 0 a3 3 0 1 0 -6 0zM2361 396 a3 3 0 1 0 6 0 a3 3 0 1 0 -6 0zM321 372 a3 3 0 1 0 6 0 a3 3 0 1 0 -6 0zM2337 420 a3 3 0 1 0 6 0 a3 3 0 1 0 -6 0zM1401 324 a3 3 0 1 0 6 0 a3 3 0 1 0 -6 0zM825 348 a3 3 0 1 0 6 0 a3 3 0 1 0 -6 0zM561 348 a3 3 0 1 0 6 0 a3 3 0 1 0 -6 0zM393 372 a3 3 0 1 0 6 0 a3 3 0 1 0 -6 0zM57 444 a3 3 0 1 0 6 0 a3 3 0 1 0 -6 0zM609 372 a3 3 0 1 0 6 0 a3 3 0 1 0 -6 0zM1425 324 a3 3 0 1 0 6 0 a3 3 0 1 0 -6 0zM513 396 a3 3 0 1 0 6 0 a3 3 0 1 0 -6 0zM657 372 a3 3 0 1 0 6 0 a3 3 0 1 0 -6 0zM1233 324 a3 3 0 1 0 6 0 a3 3 0 1 0 -6 0zM1641 348 a3 3 0 1 0 6 0 a3 3 0 1 0 -6 0zM441 396 a3 3 0 1 0 6 0 a3 3 0 1 0 -6 0zM897 324 a3 3 0 1 0 6 0 a3 3 0 1 0 -6 0zM57 348 a3 3 0 1 0 6 0 a3 3 0 1 0 -6 0zM105 420 a3 3 0 1 0 6 0 a3 3 0 1 0 -6 0zM2385 396 a3 3 0 1 0 6 0 a3 3 0 1 0 -6 0zM225 420 a3 3 0 1 0 6 0 a3 3 0 1 0 -6 0zM945 324 a3 3 0 1 0 6 0 a3 3 0 1 0 -6 0zM1473 324 a3 3 0 1 0 6 0 a3 3 0 1 0 -6 0z" fill="black"></path><path d="M441 1404 a3 3 0 1 0 6 0 a3 3 0 1 0 -6 0zM2121 1308 a3 3 0 1 0 6 0 a3 3 0 1 0 -6 0zM2529 1140 a3 3 0 1 0 6 0 a3 3 0 1 0 -6 0zM57 1428 a3 3 0 1 0 6 0 a3 3 0 1 0 -6 0zM201 1476 a3 3 0 1 0 6 0 a3 3 0 1 0 -6 0zM537 1380 a3 3 0 1 0 6 0 a3 3 0 1 0 -6 0zM1185 1404 a3 3 0 1 0 6 0 a3 3 0 1 0 -6 0zM753 1356 a3 3 0 1 0 6 0 a3 3 0 1 0 -6 0zM657 1356 a3 3 0 1 0 6 0 a3 3 0 1 0 -6 0zM945 1428 a3 3 0 1 0 6 0 a3 3 0 1 0 -6 0zM969 1452 a3 3 0 1 0 6 0 a3 3 0 1 0 -6 0zM1065 1380 a3 3 0 1 0 6 0 a3 3 0 1 0 -6 0zM1209 1404 a3 3 0 1 0 6 0 a3 3 0 1 0 -6 0zM1137 1476 a3 3 0 1 0 6 0 a3 3 0 1 0 -6 0zM1617 1356 a3 3 0 1 0 6 0 a3 3 0 1 0 -6 0zM1209 1476 a3 3 0 1 0 6 0 a3 3 0 1 0 -6 0zM57 1380 a3 3 0 1 0 6 0 a3 3 0 1 0 -6 0zM1137 1356 a3 3 0 1 0 6 0 a3 3 0 1 0 -6 0zM57 1476 a3 3 0 1 0 6 0 a3 3 0 1 0 -6 0zM1377 1428 a3 3 0 1 0 6 0 a3 3 0 1 0 -6 0zM1953 1308 a3 3 0 1 0 6 0 a3 3 0 1 0 -6 0zM321 1548 a3 3 0 1 0 6 0 a3 3 0 1 0 -6 0zM1353 1452 a3 3 0 1 0 6 0 a3 3 0 1 0 -6 0z" fill="black"></path><path d="M1449 1428 a3 3 0 1 0 6 0 a3 3 0 1 0 -6 0zM1473 1452 a3 3 0 1 0 6 0 a3 3 0 1 0 -6 0zM1929 1356 a3 3 0 1 0 6 0 a3 3 0 1 0 -6 0zM1377 1500 a3 3 0 1 0 6 0 a3 3 0 1 0 -6 0zM2265 1332 a3 3 0 1 0 6 0 a3 3 0 1 0 -6 0zM1473 1404 a3 3 0 1 0 6 0 a3 3 0 1 0 -6 0zM1737 1404 a3 3 0 1 0 6 0 a3 3 0 1 0 -6 0zM1929 1380 a3 3 0 1 0 6 0 a3 3 0 1 0 -6 0zM2169 1308 a3 3 0 1 0 6 0 a3 3 0 1 0 -6 0zM1929 1404 a3 3 0 1 0 6 0 a3 3 0 1 0 -6 0zM2001 1404 a3 3 0 1 0 6 0 a3 3 0 1 0 -6 0zM1809 1404 a3 3 0 1 0 6 0 a3 3 0 1 0 -6 0zM2073 1308 a3 3 0 1 0 6 0 a3 3 0 1 0 -6 0z" fill="black"></path><path d="M105 324 a3 3 0 1 0 6 0 a3 3 0 1 0 -6 0zM921 228 a3 3 0 1 0 6 0 a3 3 0 1 0 -6 0zM1089 300 a3 3 0 1 0 6 0 a3 3 0 1 0 -6 0zM2409 396 a3 3 0 1 0 6 0 a3 3 0 1 0 -6 0zM609 300 a3 3 0 1 0 6 0 a3 3 0 1 0 -6 0zM1521 276 a3 3 0 1 0 6 0 a3 3 0 1 0 -6 0zM57 300 a3 3 0 1 0 6 0 a3 3 0 1 0 -6 0zM945 204 a3 3 0 1 0 6 0 a3 3 0 1 0 -6 0zM201 228 a3 3 0 1 0 6 0 a3 3 0 1 0 -6 0zM2217 348 a3 3 0 1 0 6 0 a3 3 0 1 0 -6 0zM1473 276 a3 3 0 1 0 6 0 a3 3 0 1 0 -6 0zM1593 228 a3 3 0 1 0 6 0 a3 3 0 1 0 -6 0zM2337 348 a3 3 0 1 0 6 0 a3 3 0 1 0 -6 0zM369 300 a3 3 0 1 0 6 0 a3 3 0 1 0 -6 0zM345 348 a3 3 0 1 0 6 0 a3 3 0 1 0 -6 0zM1569 204 a3 3 0 1 0 6 0 a3 3 0 1 0 -6 0zM1905 276 a3 3 0 1 0 6 0 a3 3 0 1 0 -6 0zM2529 420 a3 3 0 1 0 6 0 a3 3 0 1 0 -6 0zM369 180 a3 3 0 1 0 6 0 a3 3 0 1 0 -6 0zM2097 324 a3 3 0 1 0 6 0 a3 3 0 1 0 -6 0zM489 252 a3 3 0 1 0 6 0 a3 3 0 1 0 -6 0zM393 300 a3 3 0 1 0 6 0 a3 3 0 1 0 -6 0zM2457 372 a3 3 0 1 0 6 0 a3 3 0 1 0 -6 0zM249 348 a3 3 0 1 0 6 0 a3 3 0 1 0 -6 0zM2145 324 a3 3 0 1 0 6 0 a3 3 0 1 0 -6 0zM1809 252 a3 3 0 1 0 6 0 a3 3 0 1 0 -6 0zM969 324 a3 3 0 1 0 6 0 a3 3 0 1 0 -6 0z" fill="black"></path></mask></defs></svg>